<svg width="339" height="390" viewBox="0 0 339 390" fill="none" xmlns="http://www.w3.org/2000/svg">
<path d="M335.221 290.31L169.502 385.988L3.7829 290.31V98.9539L169.502 3.27582L335.221 98.9539V290.31Z" fill="#20273A"/>
<path d="M167.613 -6.10352e-05L1.88976 95.684L0 98.9542V290.308L1.88976 293.585L167.613 389.262H171.393L337.109 293.585L338.999 290.308V98.9542L337.109 95.684L171.393 -6.10352e-05H167.613ZM169.503 7.64019L331.439 101.139V288.13L169.503 381.621L7.55907 288.13V101.139L169.503 7.64019Z" fill="#9C6BE6"/>
<path d="M58.3793 103.383C58.1002 103.378 57.8303 103.483 57.6275 103.675C57.4247 103.867 57.305 104.13 57.2942 104.409V104.439L56.4822 128.12C56.5051 128.229 56.5449 128.334 56.6001 128.43C56.4308 128.455 56.27 128.521 56.1312 128.621C55.9925 128.721 55.8798 128.853 55.8028 129.006L40.7364 195.015C40.7452 195.08 40.76 195.145 40.7806 195.207H40.4631C40.3014 195.251 40.1522 195.331 40.0276 195.443C39.9052 195.308 39.7501 195.206 39.5773 195.148H36.5655C36.363 195.147 36.1644 195.203 35.9928 195.311C35.8212 195.418 35.6836 195.572 35.5962 195.755C35.5088 195.937 35.475 196.141 35.499 196.342C35.5229 196.543 35.6035 196.733 35.7314 196.89L38.2633 200.042C38.2494 200.071 38.2368 200.101 38.2255 200.131V229.083C38.2264 229.228 38.2569 229.372 38.3154 229.505C38.3738 229.638 38.4588 229.758 38.5653 229.858L40.2114 231.4C40.4251 231.546 40.6843 231.609 40.9409 231.577C41.1974 231.546 41.434 231.423 41.6066 231.231C41.7089 231.431 41.8716 231.594 42.0717 231.696H58.7917C59.0114 231.591 59.1885 231.413 59.2937 231.194C59.5056 231.352 59.7686 231.425 60.0318 231.401L66.956 230.301L63.7302 231.356C63.5983 231.44 63.4864 231.552 63.4024 231.683C63.3183 231.815 63.2642 231.963 63.2438 232.118C63.2234 232.273 63.2372 232.431 63.2843 232.58C63.3314 232.728 63.4105 232.865 63.5162 232.98L39.4956 232.611C39.3539 232.608 39.2131 232.633 39.0813 232.685C38.9495 232.737 38.8293 232.815 38.7278 232.914C38.6931 232.732 38.6116 232.562 38.4912 232.42C38.3708 232.279 38.2158 232.172 38.0413 232.109L35.4134 231.703C35.2616 231.68 35.1066 231.691 34.9592 231.733C34.8117 231.776 34.6752 231.85 34.5589 231.95C34.4426 232.05 34.3492 232.174 34.2852 232.314C34.2212 232.454 34.1881 232.605 34.188 232.759V239.506C34.1879 239.742 34.2661 239.972 34.4103 240.159C34.5546 240.346 34.7568 240.479 34.9852 240.539L37.6058 241.218C37.7987 241.252 37.9972 241.232 38.1795 241.16C38.3617 241.089 38.5208 240.968 38.6393 240.812C38.6794 241.015 38.7775 241.202 38.9216 241.35C39.0657 241.498 39.2497 241.601 39.4513 241.647L138.679 243.846C138.821 243.85 138.963 243.824 139.095 243.772C139.228 243.72 139.349 243.641 139.451 243.542C139.552 243.442 139.633 243.323 139.688 243.191C139.743 243.06 139.772 242.918 139.771 242.776V235.66L170.797 224.639L201.521 235.571L201.764 242.355C201.773 242.634 201.891 242.898 202.093 243.092C202.294 243.285 202.563 243.391 202.842 243.389L299.929 242.938C300.049 242.859 300.152 242.756 300.232 242.636C300.358 242.757 300.512 242.845 300.681 242.893C300.85 242.941 301.027 242.946 301.199 242.909L303.834 242.222C304.062 242.163 304.265 242.029 304.409 241.842C304.553 241.655 304.631 241.425 304.631 241.189V234.457C304.631 234.304 304.598 234.153 304.534 234.014C304.471 233.875 304.378 233.751 304.263 233.651C304.147 233.551 304.012 233.477 303.865 233.434C303.719 233.391 303.564 233.38 303.413 233.401L300.778 233.792C300.618 233.899 300.491 234.047 300.409 234.22C300.266 234.112 300.099 234.041 299.921 234.014L210.874 234.294L210.564 229.584C210.549 229.371 210.471 229.167 210.34 228.999C210.208 228.83 210.029 228.705 209.826 228.64L170.893 215.965C170.83 215.959 170.765 215.959 170.701 215.965L172.746 215.367L211.804 227.909V232.825C211.803 233.108 211.915 233.379 212.114 233.58C212.313 233.781 212.584 233.894 212.867 233.895L272.166 233.991C272.418 233.989 272.662 233.897 272.854 233.732C273.045 233.566 273.171 233.338 273.21 233.088C273.249 232.838 273.198 232.583 273.066 232.367C272.935 232.151 272.73 231.989 272.49 231.91L269.471 230.943L278.233 232.338C278.418 232.335 278.598 232.284 278.757 232.19C278.8 232.393 278.901 232.58 279.048 232.727C279.194 232.874 279.381 232.974 279.584 233.017H296.304C296.548 232.909 296.743 232.715 296.85 232.471C297.04 232.574 297.257 232.617 297.472 232.595C297.686 232.572 297.889 232.485 298.054 232.345L299.7 230.788C299.805 230.688 299.889 230.568 299.946 230.434C300.003 230.301 300.032 230.158 300.032 230.013V201.068C300.021 201.038 300.008 201.009 299.994 200.98L302.534 197.82C302.659 197.663 302.738 197.474 302.761 197.274C302.783 197.074 302.749 196.872 302.662 196.691C302.575 196.509 302.438 196.356 302.268 196.249C302.098 196.142 301.901 196.085 301.699 196.085H298.688C298.555 196.14 298.434 196.22 298.333 196.322C298.176 196.214 297.992 196.15 297.802 196.137H297.514C297.524 196.081 297.529 196.024 297.529 195.968L282.463 129.951C282.387 129.807 282.279 129.682 282.147 129.586C282.015 129.49 281.863 129.426 281.702 129.398C281.745 129.292 281.769 129.179 281.776 129.065L280.971 105.377V105.347C280.966 105.063 280.848 104.794 280.644 104.597C280.439 104.401 280.166 104.293 279.882 104.298C279.599 104.303 279.329 104.42 279.132 104.624C278.935 104.828 278.826 105.101 278.831 105.385L278.949 129.125C278.974 129.304 279.046 129.475 279.155 129.619C279.033 129.712 278.933 129.831 278.86 129.966L264.894 195.983C264.9 196.017 264.907 196.052 264.916 196.086H263.123C262.926 196.086 262.734 196.141 262.567 196.244C262.4 196.346 262.265 196.493 262.175 196.668C262.086 196.842 262.047 197.038 262.062 197.234C262.076 197.429 262.145 197.617 262.259 197.776L264.584 201.024C264.696 201.113 264.824 201.178 264.961 201.216C264.929 201.244 264.9 201.273 264.872 201.305V222.956L247.717 218.6V194.742C247.712 194.737 247.707 194.732 247.702 194.727L249.606 192.771C249.754 192.62 249.854 192.43 249.893 192.222C249.933 192.015 249.91 191.801 249.828 191.607C249.746 191.413 249.608 191.247 249.432 191.131C249.256 191.015 249.049 190.954 248.838 190.955H246.469C246.575 190.831 246.651 190.686 246.692 190.528C246.733 190.371 246.737 190.206 246.705 190.047L233.766 141.356C233.679 141.276 233.579 141.211 233.47 141.164C233.48 141.13 233.487 141.095 233.493 141.061L232.821 124.422V124.378C232.805 124.103 232.683 123.845 232.48 123.658C232.278 123.471 232.012 123.37 231.737 123.375C231.461 123.38 231.199 123.491 231.003 123.684C230.808 123.878 230.695 124.14 230.688 124.416V124.46L230.665 141.099C230.687 141.183 230.719 141.265 230.761 141.342C230.58 141.447 230.434 141.604 230.341 141.792L218.456 190.572C218.464 190.652 218.481 190.731 218.508 190.808L218.353 190.8C218.156 190.794 217.962 190.842 217.791 190.938C217.62 191.035 217.479 191.177 217.384 191.349C217.289 191.521 217.242 191.715 217.251 191.912C217.259 192.108 217.321 192.298 217.43 192.461L218.899 194.683C218.878 194.702 218.859 194.722 218.84 194.742V214.444C218.911 214.632 219.034 214.796 219.194 214.917L206.866 210.99C206.835 210.983 206.802 210.978 206.77 210.975H207.612V205.15H206.896C207.071 205.06 207.218 204.922 207.319 204.753C207.421 204.585 207.474 204.391 207.473 204.193C207.471 203.996 207.415 203.803 207.311 203.636C207.206 203.469 207.057 203.334 206.881 203.246L165.365 189.309C165.137 189.232 164.89 189.235 164.664 189.316L125.953 203.253C125.767 203.356 125.616 203.511 125.519 203.7C125.422 203.888 125.384 204.101 125.408 204.312C125.433 204.523 125.519 204.721 125.657 204.882C125.795 205.044 125.978 205.16 126.182 205.217H126.042V210.99C126.022 210.992 126.002 210.994 125.983 210.997L120.055 212.939C120.222 212.865 120.368 212.749 120.478 212.603C120.588 212.457 120.658 212.286 120.683 212.104V192.387C120.664 192.367 120.644 192.347 120.624 192.328L122.085 190.121C122.194 189.959 122.256 189.769 122.264 189.573C122.273 189.378 122.227 189.184 122.133 189.012C122.038 188.841 121.899 188.699 121.729 188.601C121.559 188.504 121.366 188.455 121.17 188.46H121.052C121.066 188.38 121.071 188.298 121.067 188.217L109.168 139.452C109.05 139.332 108.906 139.241 108.747 139.186C108.816 139.054 108.856 138.908 108.865 138.758L108.834 122.12V122.075C108.828 121.8 108.715 121.538 108.519 121.344C108.324 121.15 108.061 121.039 107.786 121.034C107.511 121.03 107.244 121.131 107.042 121.318C106.84 121.505 106.718 121.763 106.701 122.038V122.082L106.029 138.706C106.032 138.711 106.034 138.716 106.037 138.721C105.925 138.8 105.83 138.901 105.756 139.016L92.8086 187.707C92.7705 187.86 92.7665 188.019 92.7971 188.173C92.8277 188.328 92.892 188.473 92.9855 188.6H90.6823C90.473 188.6 90.2683 188.662 90.0938 188.778C89.9193 188.893 89.7826 189.058 89.7008 189.251C89.619 189.443 89.5956 189.656 89.6337 189.862C89.6717 190.068 89.7694 190.258 89.9146 190.409L91.8192 192.372C91.8141 192.377 91.809 192.382 91.804 192.387V216.312C91.841 216.472 91.9142 216.621 92.018 216.747L74.4343 221.398C74.2058 221.458 74.0036 221.592 73.8594 221.779C73.7151 221.966 73.637 222.195 73.6371 222.432V227.126C73.638 227.291 73.6771 227.454 73.7514 227.601C73.8257 227.748 73.9331 227.877 74.0652 227.975L73.3935 228.197V200.367C73.3635 200.333 73.3315 200.301 73.2975 200.271C73.4377 200.232 73.5683 200.164 73.6813 200.072L76.0066 196.846C76.123 196.687 76.193 196.498 76.2089 196.302C76.2247 196.105 76.1858 195.908 76.0964 195.732C76.007 195.556 75.8706 195.409 75.7024 195.306C75.5342 195.202 75.3407 195.148 75.1435 195.148H73.3645C73.3689 195.111 73.3714 195.074 73.372 195.037L59.4055 129.021C59.308 128.915 59.1899 128.83 59.0585 128.77C59.2049 128.603 59.2953 128.394 59.317 128.172L59.4278 104.491V104.484V104.453C59.4285 104.173 59.319 103.904 59.1229 103.704C58.9267 103.503 58.6596 103.388 58.3793 103.383ZM56.0245 137.628L57.7223 194.188H43.1136L56.0245 137.628ZM282.235 138.543L295.153 195.14H280.53L282.235 138.543ZM59.6859 140.676L71.0097 194.188H60.9113L59.6859 140.676ZM278.581 141.621L277.356 195.14H267.257L278.581 141.621ZM107.757 148.331L113.485 186.917H104.302L107.757 148.331ZM231.758 150.701L235.212 189.257H226.044L231.758 150.701ZM104.583 151.757L101.371 186.917H95.2297L104.583 151.757ZM234.939 154.104L244.292 189.257H238.15L234.939 154.104ZM113.603 166.653L118.667 187.404H116.992L113.603 166.653ZM225.911 168.986L222.53 189.759H220.847L225.911 168.986ZM119.169 190.652L119.036 190.859H117.412L117.479 190.704L119.169 190.652ZM93.1997 190.733H100.427V190.859H93.3178L93.1997 190.733ZM103.409 190.733H114.194L114.12 190.859H103.409L103.409 190.733ZM165.04 191.449L200.023 203.194H132.42L165.04 191.449ZM220.345 192.999L222.043 193.051L222.11 193.199H220.478L220.345 192.999ZM225.335 193.088H236.106V193.198H225.402L225.335 193.088ZM239.095 193.088H246.315L246.204 193.198H239.095L239.095 193.088ZM93.9379 193.457H100.404L100.065 213.137L93.938 214.894L93.9379 193.457ZM103.409 193.457H113.64L113.382 213.204L108.207 215.152L103.409 212.827L103.409 193.457ZM116.836 193.457H118.542V211.299L116.836 211.794V193.457ZM220.973 195.804H222.7V214.148L220.973 213.646V195.804ZM225.882 195.804H236.106V215.182L231.307 217.507L226.14 215.558L225.882 195.804ZM239.118 195.804H245.584V217.249L239.457 215.492L239.118 195.804ZM38.7952 197.288H38.8689L38.9501 197.487L38.7952 197.288ZM57.7371 197.288V198.728H42.7444L42.117 197.332L57.7371 197.288ZM60.653 197.288H73.0471L72.2646 198.381H60.653V197.288ZM265.205 198.218H277.607V199.333H266.002L265.205 198.218ZM280.523 198.218L296.143 198.27L295.508 199.68H280.523V198.218ZM299.398 198.218H299.472L299.309 198.417L299.398 198.218ZM43.1357 201.437H57.7223V208.782C57.6162 208.554 57.4333 208.371 57.2056 208.265H43.837C43.6713 208.317 43.5208 208.409 43.3986 208.533C43.2764 208.656 43.1861 208.807 43.1357 208.974V201.437ZM60.9334 201.437H71.2607V227.458L60.9334 229.097V201.437ZM267.006 202.367H277.334V230.027L267.006 228.388V202.367ZM280.648 202.766H295.235V210.103C295.129 209.875 294.946 209.693 294.718 209.586H281.357C281.19 209.638 281.038 209.729 280.914 209.852C280.79 209.976 280.699 210.128 280.648 210.295V202.766ZM128.175 205.327H205.478V210.937H128.175V205.327ZM44.9074 210.398H56.1352V222.948L44.9074 222.852V210.398ZM282.42 211.72H293.648V224.225L282.42 224.143V211.72ZM126.47 213.078H206.379L265.272 231.843L213.938 231.761V227.126C213.937 226.901 213.865 226.682 213.733 226.5C213.6 226.319 213.413 226.184 213.2 226.114L173.086 213.233C172.883 213.168 172.664 213.165 172.459 213.225L128.411 226.099C128.2 226.161 128.013 226.286 127.876 226.458C127.738 226.629 127.657 226.839 127.644 227.059L127.282 232.559L70.397 231.422L126.47 213.078ZM115.39 214.126C115.593 214.236 115.826 214.278 116.054 214.244L115.087 214.562C115.223 214.444 115.327 214.295 115.39 214.126ZM101.46 216.466L103.202 217.057L75.7784 225.671V223.25L101.46 216.466ZM224.103 216.481C224.113 216.482 224.123 216.482 224.133 216.481C224.135 216.486 224.138 216.491 224.141 216.497L224.103 216.481ZM164.664 217.729L131.342 228.285C131.125 228.354 130.937 228.489 130.802 228.672C130.668 228.856 130.596 229.077 130.596 229.304V233.999L129.061 233.976C129.169 233.907 129.264 233.82 129.341 233.717L129.725 227.945L164.664 217.729ZM170.562 218.105L208.483 230.441L208.807 235.438C208.825 235.709 208.946 235.963 209.145 236.148C209.344 236.333 209.606 236.436 209.878 236.435L298.859 236.154V240.812L203.861 241.248L203.625 234.766C203.617 234.553 203.546 234.346 203.419 234.174C203.293 234.002 203.118 233.871 202.917 233.799L171.16 222.498C170.928 222.415 170.675 222.415 170.444 222.498L138.347 233.895C138.138 233.969 137.956 234.105 137.827 234.286C137.699 234.468 137.631 234.685 137.631 234.907V241.691L40.5445 239.535V234.759L131.652 236.154C131.794 236.156 131.935 236.13 132.066 236.078C132.198 236.025 132.318 235.946 132.419 235.847C132.52 235.747 132.6 235.628 132.655 235.497C132.709 235.366 132.737 235.226 132.737 235.084V230.086L170.562 218.105ZM237.789 218.283L263.603 224.838V228.189L235.958 219.191L237.789 218.283ZM43.1357 224.277C43.1864 224.441 43.276 224.59 43.3968 224.712C43.5176 224.834 43.6661 224.925 43.8296 224.978L57.1982 225.089C57.389 225.066 57.57 224.992 57.7223 224.875V229.555H43.1357V224.277ZM280.648 225.569C280.699 225.733 280.79 225.883 280.912 226.006C281.034 226.128 281.184 226.218 281.349 226.27L294.711 226.373C294.901 226.35 295.082 226.276 295.235 226.159V230.883H280.648V225.569ZM170.71 226.122L142.348 236.184C142.147 236.255 141.972 236.386 141.845 236.558C141.719 236.731 141.647 236.937 141.64 237.151L141.389 244.776L39.4522 243.086C39.2672 243.109 39.0917 243.18 38.9428 243.293V243.211C38.9435 242.985 38.8723 242.765 38.7397 242.582C38.607 242.399 38.4197 242.262 38.2046 242.193L35.5841 241.344C35.4231 241.292 35.2521 241.279 35.0852 241.306C34.9183 241.333 34.7602 241.4 34.624 241.5C34.4878 241.6 34.3773 241.731 34.3017 241.882C34.226 242.034 34.1874 242.201 34.1889 242.37L34.3661 258.078C34.4195 258.268 34.5243 258.439 34.6689 258.573C34.517 258.719 34.4117 258.906 34.3661 259.112V260.507C34.4089 260.595 34.4636 260.677 34.5287 260.75C34.3438 260.918 34.2236 261.145 34.1889 261.393L34.4251 281.826C34.4275 282.062 34.5079 282.29 34.6538 282.475L37.0381 285.502C37.1759 285.665 37.3595 285.784 37.5653 285.841C37.771 285.899 37.9893 285.894 38.1921 285.827C38.3948 285.759 38.5726 285.632 38.7025 285.462C38.8324 285.293 38.9083 285.088 38.9205 284.874C39.028 285.118 39.2229 285.313 39.4668 285.421H41.3491C41.6319 285.419 41.9027 285.306 42.102 285.105C42.3013 284.905 42.4128 284.633 42.4121 284.35V262.758H58.0986V284.35C58.0983 284.491 58.1257 284.63 58.1794 284.76C58.2331 284.89 58.3119 285.008 58.4114 285.108C58.5108 285.207 58.629 285.286 58.759 285.34C58.889 285.394 59.0284 285.421 59.169 285.421H61.0514C61.192 285.421 61.3314 285.394 61.4614 285.34C61.5914 285.286 61.7096 285.207 61.809 285.108C61.9085 285.008 61.9873 284.89 62.041 284.76C62.0947 284.63 62.1221 284.491 62.1218 284.35V262.758H75.3723V284.35C75.3716 284.633 75.4831 284.905 75.6824 285.105C75.8817 285.306 76.1525 285.419 76.4353 285.421H78.3176C78.4583 285.421 78.5976 285.394 78.7277 285.34C78.8577 285.286 78.9758 285.207 79.0753 285.108C79.1747 285.008 79.2536 284.89 79.3073 284.76C79.3609 284.63 79.3884 284.491 79.388 284.35V262.758H101.984V284.35C101.984 284.491 102.011 284.63 102.065 284.76C102.118 284.89 102.197 285.008 102.297 285.108C102.396 285.207 102.514 285.286 102.644 285.34C102.774 285.394 102.914 285.421 103.054 285.421H104.937C105.22 285.419 105.49 285.306 105.69 285.105C105.889 284.905 106 284.633 106 284.35V262.758H128.714V284.35C128.713 284.491 128.741 284.63 128.795 284.76C128.848 284.89 128.927 285.008 129.027 285.108C129.126 285.207 129.244 285.286 129.374 285.34C129.504 285.394 129.644 285.421 129.784 285.421H131.667C131.807 285.421 131.947 285.394 132.077 285.34C132.207 285.286 132.325 285.207 132.424 285.108C132.524 285.008 132.602 284.89 132.656 284.76C132.71 284.63 132.737 284.491 132.737 284.35V262.758H155.695V284.35C155.694 284.491 155.722 284.63 155.775 284.76C155.829 284.89 155.908 285.008 156.007 285.108C156.107 285.207 156.225 285.286 156.355 285.34C156.485 285.394 156.624 285.421 156.765 285.421H158.647C158.93 285.419 159.201 285.306 159.4 285.105C159.599 284.905 159.711 284.633 159.71 284.35V262.758H182.343V284.35C182.343 284.633 182.454 284.905 182.653 285.105C182.853 285.306 183.123 285.419 183.406 285.421H185.289C185.429 285.421 185.569 285.394 185.699 285.34C185.829 285.286 185.947 285.207 186.046 285.108C186.146 285.008 186.225 284.89 186.278 284.76C186.332 284.63 186.359 284.491 186.359 284.35V262.758H209.088V284.35C209.087 284.633 209.199 284.905 209.398 285.105C209.597 285.306 209.868 285.419 210.151 285.421H212.033C212.174 285.421 212.313 285.394 212.443 285.34C212.573 285.286 212.691 285.207 212.791 285.108C212.89 285.008 212.969 284.89 213.023 284.76C213.076 284.63 213.104 284.491 213.104 284.35V262.758H235.116V284.35C235.116 284.491 235.143 284.63 235.197 284.76C235.251 284.89 235.33 285.008 235.429 285.108C235.529 285.207 235.647 285.286 235.777 285.34C235.907 285.394 236.046 285.421 236.187 285.421H238.069C238.352 285.419 238.623 285.306 238.822 285.105C239.021 284.905 239.133 284.633 239.132 284.35V262.758H261.58V284.35C261.58 284.491 261.608 284.63 261.661 284.76C261.715 284.89 261.794 285.008 261.893 285.108C261.993 285.207 262.111 285.286 262.241 285.34C262.371 285.394 262.51 285.421 262.651 285.421H264.533C264.674 285.421 264.813 285.394 264.943 285.34C265.073 285.286 265.191 285.207 265.291 285.108C265.39 285.008 265.469 284.89 265.523 284.76C265.576 284.63 265.604 284.491 265.604 284.35V262.758H278.485V284.35C278.485 284.491 278.512 284.63 278.566 284.76C278.619 284.89 278.698 285.008 278.798 285.108C278.897 285.207 279.015 285.286 279.145 285.34C279.275 285.394 279.415 285.421 279.555 285.421H281.438C281.721 285.419 281.991 285.306 282.191 285.105C282.39 284.905 282.501 284.633 282.501 284.35V262.758H297.538V284.35C297.537 284.491 297.565 284.63 297.618 284.76C297.672 284.89 297.751 285.008 297.85 285.108C297.95 285.207 298.068 285.286 298.198 285.34C298.328 285.394 298.467 285.421 298.608 285.421H300.483C300.712 285.388 300.925 285.282 301.089 285.118C301.252 284.955 301.359 284.742 301.391 284.513C301.632 284.498 301.861 284.401 302.041 284.239L304.447 280.047C304.541 279.888 304.592 279.707 304.595 279.522L304.816 261.112C304.804 260.907 304.732 260.709 304.61 260.544C304.617 260.531 304.625 260.519 304.632 260.506V259.081C304.592 258.974 304.535 258.875 304.463 258.786C304.534 258.699 304.591 258.602 304.632 258.498V244.044C304.633 243.876 304.593 243.71 304.517 243.559C304.441 243.409 304.33 243.279 304.194 243.18C304.058 243.08 303.9 243.014 303.734 242.988C303.568 242.961 303.397 242.974 303.237 243.025L300.602 243.882C300.473 243.99 300.372 244.126 300.307 244.28C300.275 244.266 300.243 244.254 300.211 244.243L200.496 245.431L200.179 237.008C200.171 236.795 200.099 236.588 199.973 236.416C199.846 236.244 199.671 236.113 199.47 236.041L171.419 226.12C171.189 226.039 170.939 226.041 170.71 226.122ZM171.064 228.263L198.074 237.815L198.399 246.555C198.409 246.833 198.528 247.095 198.729 247.287C198.931 247.479 199.199 247.584 199.476 247.581L222.368 247.308C218.218 247.746 215.375 250.101 213.886 252.793C212.475 255.343 212.199 257.551 212.018 258.875H209.715C209.588 257.52 209.42 255.307 207.803 252.741C205.92 249.752 202.319 246.991 196.214 246.991C191.341 246.991 188.316 249.84 186.684 252.793C185.273 255.343 184.996 257.551 184.816 258.875H183.687C183.56 257.52 183.391 255.307 181.775 252.741C179.891 249.752 176.29 246.991 170.185 246.991C165.312 246.991 162.281 249.84 160.648 252.793C159.237 255.343 158.968 257.551 158.787 258.875H156.802C156.675 257.52 156.507 255.307 154.89 252.741C153.006 249.752 149.406 246.991 143.3 246.991C138.428 246.991 135.404 249.84 133.77 252.793C132.359 255.343 132.083 257.551 131.903 258.875H129.496C129.369 257.52 129.208 255.307 127.592 252.741C125.709 249.752 122.107 246.991 116.002 246.991C111.129 246.991 108.098 249.84 106.465 252.793C105.054 255.343 104.778 257.551 104.597 258.875H102.907C102.78 257.52 102.618 255.307 101.002 252.741C99.1193 249.752 95.5178 246.991 89.4124 246.991C84.5398 246.991 81.5086 249.84 79.875 252.793C78.4641 255.343 78.188 257.551 78.0074 258.875H76.0955C75.4942 254.771 72.2087 251.498 67.9385 251.715C64.6273 251.734 62.636 253.904 61.6935 255.901C60.984 257.404 60.9675 258.228 60.8888 258.875H59.2426C59.2048 258.101 59.254 256.675 58.1575 254.446C56.7989 251.681 53.851 248.824 48.5537 248.829H48.5461C44.2767 248.833 41.775 251.77 40.5441 254.483C40.5052 254.569 40.5366 254.568 40.4999 254.653V245.241L142.407 246.924C142.687 246.929 142.958 246.823 143.161 246.63C143.364 246.436 143.483 246.171 143.492 245.891L143.751 237.948L171.064 228.263ZM36.322 234.006L36.8092 234.08V238.804L36.322 238.679V234.006ZM302.498 235.697V240.362L302.004 240.495V235.77L302.498 235.697ZM36.3368 243.831L36.8092 243.986V257.584L36.4993 257.421L36.3368 243.831ZM302.498 245.514V257.872L302.004 258.145V245.677L302.498 245.514ZM299.154 246.393V254.085C297.67 251.573 294.922 249.124 289.993 249.124C285.732 249.124 283.227 251.971 281.991 254.616C280.988 256.763 280.915 258.154 280.832 258.876H279.186C278.49 254.888 275.218 251.773 271.059 252.025C268.169 252.044 266.246 253.705 265.22 255.45C264.411 256.825 264.261 257.946 264.098 258.876H262.813C262.686 257.52 262.517 255.307 260.901 252.741C259.019 249.752 255.417 246.991 249.312 246.991C244.439 246.991 241.415 249.84 239.782 252.793C238.371 255.343 238.095 257.551 237.914 258.876H236.917C236.79 257.52 236.629 255.307 235.013 252.741C233.286 249.999 229.868 247.681 224.641 247.279L299.154 246.393ZM89.4126 249.124C94.902 249.124 97.6247 251.387 99.1936 253.878C100.617 256.138 100.832 258.372 100.921 259.437H98.4333C98.2537 257.703 97.7273 255.993 96.477 254.757C95.0575 253.28 93.1273 252.413 91.0809 252.328C88.9351 252.204 86.8495 253.09 85.4559 254.727C84.9697 255.278 84.9865 256.066 84.6587 256.713C84.5415 256.91 84.3691 257.068 84.2674 257.274C83.891 257.946 83.6785 258.689 83.4997 259.437H80.0302C80.1754 258.336 80.4912 256.102 81.7502 253.826C83.1484 251.299 85.3382 249.124 89.4126 249.124ZM116.002 249.124C121.492 249.124 124.214 251.387 125.783 253.878C127.206 256.138 127.422 258.372 127.511 259.437H124.853C124.661 257.759 124.127 256.098 122.83 254.985C121.362 253.721 119.496 253.022 117.56 252.985C115.557 252.869 113.588 253.58 112.134 254.963C111.619 255.45 111.627 256.224 111.27 256.823C111.134 257.013 110.939 257.154 110.82 257.355C110.408 257.988 110.175 258.709 109.979 259.437H106.62C106.765 258.336 107.081 256.102 108.34 253.826C109.738 251.299 111.928 249.124 116.002 249.124ZM143.3 249.124C148.79 249.124 151.519 251.387 153.089 253.878C154.513 256.138 154.72 258.372 154.809 259.437H151.79C151.58 257.777 151.024 256.142 149.723 255.059C148.252 253.816 146.392 253.119 144.467 253.088C142.478 252.982 140.527 253.692 139.078 255.059C138.555 255.549 138.559 256.329 138.199 256.934C138.067 257.119 137.873 257.254 137.757 257.451C137.362 258.054 137.148 258.746 136.952 259.437H133.925C134.071 258.336 134.379 256.102 135.638 253.826C137.036 251.299 139.226 249.124 143.3 249.124ZM170.185 249.124C175.675 249.124 178.397 251.387 179.966 253.878C181.39 256.138 181.605 258.372 181.694 259.437H160.803C160.948 258.336 161.264 256.102 162.523 253.826C163.92 251.299 166.111 249.124 170.185 249.124ZM196.214 249.124C201.703 249.124 204.433 251.387 206.002 253.878C207.426 256.138 207.633 258.372 207.722 259.437H205.013C204.998 259.385 204.939 259.362 204.925 259.311C204.669 257.668 204.008 256.075 202.629 255.111C201.153 254.023 199.37 253.423 197.535 253.406C197.245 253.391 196.954 253.383 196.664 253.398C195.093 253.482 193.589 254.047 192.353 255.022C192.351 255.025 192.348 255.027 192.346 255.03C191.826 255.445 191.818 256.184 191.445 256.72C191.279 256.916 191.059 257.061 190.914 257.274C190.437 257.917 190.143 258.665 189.939 259.437H186.839C186.984 258.336 187.293 256.102 188.551 253.826C189.949 251.299 192.139 249.124 196.214 249.124ZM223.423 249.124C228.913 249.124 231.636 251.387 233.204 253.878C234.628 256.138 234.836 258.372 234.924 259.437H231.403C231.384 259.355 231.298 259.31 231.278 259.23C231.073 257.509 230.464 255.828 229.115 254.712C227.65 253.449 225.792 252.743 223.859 252.704C221.849 252.594 219.88 253.319 218.433 254.72C217.916 255.215 217.925 255.994 217.57 256.602C217.436 256.791 217.243 256.933 217.127 257.133C217.125 257.136 217.123 257.137 217.119 257.141C216.671 257.841 216.39 258.628 216.204 259.437H214.041C214.186 258.336 214.495 256.102 215.754 253.827C217.152 251.299 219.349 249.124 223.423 249.124ZM249.312 249.124C254.801 249.124 257.531 251.387 259.1 253.878C260.523 256.138 260.731 258.372 260.82 259.437H258.428C258.427 259.398 258.379 259.379 258.377 259.341L258.436 259.333C258.401 259.124 258.164 259.019 258.111 258.816C257.86 257.125 257.229 255.479 255.859 254.424C254.39 253.209 252.554 252.534 250.648 252.505C248.67 252.396 246.731 253.082 245.274 254.424C244.728 254.922 244.729 255.727 244.358 256.351C244.24 256.499 244.067 256.593 243.96 256.749C243.957 256.752 243.955 256.754 243.952 256.757C243.428 257.532 243.071 258.408 242.889 259.326L242.933 259.333C242.93 259.373 242.884 259.397 242.882 259.437H239.936C240.081 258.336 240.39 256.102 241.649 253.826C243.047 251.299 245.237 249.124 249.312 249.124ZM48.5538 250.97C53.1318 250.962 55.1277 253.131 56.2384 255.391C57.2248 257.399 57.22 259.006 57.2349 259.437H54.8949C55.1155 259.325 55.2903 259.139 55.3895 258.913C55.3911 258.838 55.3097 258.787 55.3082 258.713L55.3747 258.706C55.3483 258.552 55.1914 258.458 55.1532 258.307C55.0297 257.074 54.6988 255.844 53.8245 254.948C52.7502 253.823 51.2681 253.172 49.7128 253.14C49.5049 253.129 49.2932 253.129 49.0853 253.14C48.8737 253.155 48.738 253.367 48.5317 253.406L48.509 253.347C48.5003 253.373 48.4928 253.401 48.4863 253.428C47.417 253.642 46.3519 253.989 45.6074 254.801C45.5885 254.82 45.5733 254.835 45.5556 254.853C45.5426 254.867 45.53 254.882 45.5178 254.897C45.0866 255.392 45.0981 256.088 44.846 256.683C44.8233 256.727 44.7803 256.757 44.7576 256.801C44.4091 257.395 44.1571 258.046 44.0194 258.72L44.0711 258.728C44.0683 258.801 43.9974 258.854 43.9974 258.927C44.0899 259.143 44.2508 259.322 44.4551 259.437H41.4064C41.4574 258.95 41.5697 257.378 42.4841 255.362C43.531 253.054 45.2192 250.97 48.5538 250.97ZM289.993 251.258C294.567 251.258 296.581 253.369 297.7 255.554C298.688 257.483 298.692 259.005 298.711 259.437H296.541C296.541 259.425 296.526 259.418 296.526 259.406L296.592 259.399C296.566 259.237 296.402 259.137 296.364 258.978C296.249 257.58 295.871 256.19 294.873 255.184C293.714 253.987 292.131 253.298 290.466 253.257C288.727 253.164 287.039 253.879 285.911 255.206C285.452 255.734 285.461 256.477 285.188 257.111C285.157 257.162 285.112 257.199 285.084 257.251C284.701 257.905 284.425 258.618 284.279 259.362L284.331 259.37C284.33 259.396 284.301 259.411 284.301 259.436H282.854C282.907 258.953 283.018 257.456 283.924 255.516C284.967 253.284 286.645 251.258 289.993 251.258ZM90.9701 253.014H91.008C91.0004 253.014 90.9928 253.022 90.9853 253.022C90.9777 253.022 90.9777 253.014 90.9701 253.014ZM250.685 253.206H250.723C250.719 253.206 250.715 253.214 250.707 253.214C250.7 253.214 250.692 253.206 250.685 253.206ZM223.807 253.413L223.866 253.421C223.859 253.42 223.851 253.428 223.844 253.428C223.828 253.428 223.822 253.413 223.807 253.413ZM117.419 253.686H117.464C117.456 253.686 117.449 253.694 117.441 253.694C117.433 253.694 117.427 253.686 117.419 253.686ZM144.349 253.775L144.4 253.783C144.397 253.782 144.393 253.79 144.385 253.79C144.37 253.79 144.364 253.775 144.349 253.775ZM67.9756 253.841C67.9952 253.842 68.0149 253.842 68.0346 253.841C71.34 253.666 73.9222 256.212 74.2058 259.437H62.9115C62.9614 258.999 63.017 258.11 63.6275 256.816C64.3737 255.235 65.5173 253.841 67.9756 253.841ZM271.096 254.144C271.118 254.145 271.14 254.145 271.162 254.144C274.358 253.934 276.902 256.332 277.289 259.437H266.12C266.251 258.679 266.415 257.622 267.058 256.529C267.842 255.196 268.952 254.144 271.096 254.144ZM245.879 254.801C245.864 254.813 245.856 254.828 245.841 254.839C245.834 254.843 245.826 254.841 245.819 254.847L245.879 254.801ZM90.8816 255.148C90.8942 255.148 90.9068 255.148 90.9194 255.148C92.2992 255.178 93.6222 255.708 94.6472 256.632C94.6497 256.632 94.6523 256.632 94.6548 256.632C95.4695 257.359 95.8222 258.407 96.1459 259.437H85.7375C85.8187 258.948 86.0874 258.541 86.2763 258.086C86.573 257.52 86.9248 256.982 87.3689 256.521C88.2832 255.57 89.5647 255.07 90.8816 255.148ZM250.633 255.34C250.646 255.343 250.658 255.345 250.671 255.348C251.987 255.359 253.269 255.77 254.34 256.536C254.34 256.539 254.34 256.541 254.34 256.544C255.309 257.229 255.896 258.29 256.17 259.437H245.105C245.154 259.256 245.25 259.095 245.319 258.921C245.401 258.526 245.66 258.221 245.828 257.858C246.189 257.357 246.608 256.9 247.113 256.544C247.133 256.53 247.152 256.515 247.172 256.499C248.144 255.703 249.377 255.287 250.633 255.34ZM202.252 255.458L202.267 255.466C202.263 255.463 202.256 255.468 202.252 255.466C202.252 255.465 202.253 255.458 202.252 255.458ZM223.726 255.546C223.746 255.55 223.765 255.552 223.785 255.554C225.118 255.573 226.412 256.013 227.476 256.816C228.329 257.45 228.761 258.438 229.085 259.437H218.463C218.478 259.39 218.497 259.344 218.514 259.297C218.6 258.846 218.883 258.492 219.076 258.079C219.394 257.566 219.767 257.09 220.227 256.698C221.204 255.881 222.455 255.466 223.726 255.546ZM117.353 255.82C117.368 255.82 117.383 255.82 117.397 255.82C118.726 255.839 120.009 256.272 121.073 257.067C121.076 257.067 121.078 257.067 121.081 257.067C121.853 257.639 122.185 258.555 122.528 259.437H112.245C112.332 259.029 112.585 258.705 112.762 258.33C113.08 257.823 113.454 257.349 113.913 256.964C114.877 256.162 116.101 255.757 117.353 255.82ZM49.6021 255.858C49.6147 255.858 49.6273 255.858 49.6399 255.858C50.4989 255.876 51.3258 256.2 51.9725 256.766C52.6563 257.363 53.116 258.174 53.2718 259.069C53.3907 259.234 53.5547 259.363 53.7442 259.438H45.7127C45.8669 259.372 46.0035 259.271 46.1113 259.143C46.2039 258.69 46.3767 258.263 46.6133 257.866C46.6241 257.844 46.6342 257.822 46.6435 257.799C46.8529 257.386 47.1328 257.01 47.4629 256.685C47.4655 256.682 47.468 256.679 47.4705 256.677C48.0342 256.111 48.8047 255.812 49.6021 255.858ZM144.297 255.917C144.312 255.917 144.326 255.917 144.341 255.917C145.657 255.92 146.941 256.337 148.01 257.105C148.779 257.663 149.104 258.568 149.449 259.438H139.218C139.305 259.064 139.528 258.764 139.691 258.419C140.01 257.912 140.389 257.444 140.85 257.061C141.816 256.261 143.044 255.857 144.297 255.917ZM290.34 256.071C290.35 256.072 290.36 256.072 290.37 256.071C291.353 256.094 292.299 256.461 293.035 257.112C293.717 257.718 294.101 258.558 294.32 259.438H286.502C286.61 259.051 286.726 258.662 286.931 258.316C286.941 258.299 286.951 258.281 286.961 258.264C287.198 257.807 287.501 257.392 287.869 257.031C287.874 257.026 287.879 257.021 287.884 257.016C288.529 256.361 289.422 256.022 290.34 256.071ZM197.447 256.189C197.466 256.192 197.486 256.195 197.505 256.197C198.788 256.212 200.04 256.579 201.123 257.267C201.128 257.272 201.133 257.277 201.138 257.282C201.917 257.759 202.277 258.612 202.629 259.438H192.228C192.323 259.021 192.61 258.712 192.811 258.338C193.137 257.9 193.512 257.493 193.955 257.172C193.958 257.17 193.959 257.168 193.963 257.164C194.983 256.457 196.207 256.111 197.447 256.189ZM38.6916 261.969C38.7402 262.027 38.7947 262.079 38.8542 262.124C38.8146 262.159 38.7775 262.196 38.7434 262.235C38.714 262.178 38.6794 262.124 38.6402 262.073C38.6593 262.039 38.6762 262.005 38.6916 261.969ZM302.661 262.981L302.461 279.221L302.203 279.671L302.291 263.195L302.661 262.981ZM36.3442 263.033L36.8092 263.239V281.753L36.5583 281.436L36.3442 263.033Z" fill="white"/>
<path d="M196.483 328.057V335.862H188.681V338.614H196.483V346.419H199.237V338.614H207.042V335.862H199.237V328.057H196.483Z" fill="#9C6BE6"/>
<path d="M172.119 121.369V129.174H164.317V131.926H172.119V139.73H174.873V131.926H182.678V129.174H174.873V121.369H172.119Z" fill="#9C6BE6"/>
<path d="M310.471 157.058V164.863H302.668V167.615H310.471V175.42H313.225V167.615H321.03V164.863H313.225V157.058H310.471Z" fill="white"/>
<path d="M109.171 301.07V308.874H101.368V311.626H109.171V319.431H111.925V311.626H119.73V308.874H111.925V301.07H109.171Z" fill="white"/>
<mask id="mask0_4_3" style="mask-type:luminance" maskUnits="userSpaceOnUse" x="127" y="51" width="68" height="68">
<path d="M127.821 51.2215H194.956V118.357H127.821V51.2215Z" fill="white"/>
</mask>
<g mask="url(#mask0_4_3)">
<path fill-rule="evenodd" clip-rule="evenodd" d="M167.526 77.3634C167.61 77.3899 167.711 77.4113 167.749 77.4113C167.809 77.4113 167.832 77.423 167.913 77.4942C168.014 77.5819 168.087 77.6099 168.219 77.6149C168.264 77.6165 168.3 77.6215 168.3 77.6248C168.3 77.6282 168.252 77.7026 168.193 77.7903C167.991 78.0932 167.973 78.189 168.075 78.4158L168.137 78.5514L168.094 78.6723C168.069 78.7417 168.046 78.8476 168.041 78.9204C168.036 78.9916 168.029 79.0494 168.026 79.0494C167.998 79.0494 167.936 79.0049 167.913 78.9667C167.898 78.9403 167.864 78.9039 167.837 78.884C167.774 78.8393 167.557 78.7848 167.438 78.7848C167.324 78.7848 167.283 78.7715 167.189 78.6987C167.149 78.6673 167.071 78.626 167.016 78.6061C166.963 78.5862 166.904 78.558 166.886 78.5449C166.854 78.52 166.854 78.5184 166.884 78.4075C166.901 78.3463 166.932 78.2188 166.952 78.1228C166.973 78.027 167.005 77.9145 167.025 77.8714C167.043 77.8284 167.063 77.7688 167.068 77.7374C167.078 77.691 167.084 77.6827 167.116 77.6877C167.174 77.6994 167.192 77.6596 167.23 77.4379L167.263 77.2326L167.318 77.2741C167.347 77.2956 167.442 77.337 167.526 77.3634ZM167.986 75.7386C168.039 75.8925 168.095 75.9752 168.166 76.005C168.218 76.0249 168.218 76.0249 168.218 76.1605C168.218 76.2631 168.226 76.3094 168.251 76.3575C168.279 76.4087 168.284 76.4501 168.284 76.6056C168.284 76.7231 168.274 76.824 168.259 76.8753L168.236 76.9564L168.123 76.9481C167.999 76.9382 167.948 76.9149 167.802 76.8074C167.748 76.7678 167.688 76.7297 167.672 76.7247C167.653 76.7181 167.627 76.6933 167.614 76.6668C167.599 76.6404 167.521 76.5477 167.438 76.4617C167.356 76.374 167.291 76.2962 167.294 76.2879C167.296 76.278 167.344 76.235 167.397 76.1919C167.452 76.1489 167.534 76.0595 167.579 75.9951C167.657 75.8858 167.921 75.5929 167.933 75.6012C167.936 75.6029 167.96 75.6657 167.986 75.7386ZM190.335 53.0253C190.176 53.1892 189.975 53.4159 189.874 53.5384C189.735 53.7088 189.194 54.0959 188.568 54.4748C188.144 54.7296 187.372 55.2344 186.581 55.7721C186.171 56.0517 185.851 56.2271 185.575 56.323C185.327 56.4091 184.547 56.5977 184.152 56.6689C183.965 56.7019 183.708 56.7484 183.583 56.7715C183.457 56.793 183.351 56.8095 183.348 56.8063C183.344 56.8029 183.414 56.7715 183.503 56.7367C183.591 56.7037 183.768 56.6226 183.895 56.558C184.023 56.4952 184.258 56.381 184.417 56.3065C184.767 56.1444 184.956 56.0302 185.227 55.82C185.342 55.7308 185.49 55.6215 185.558 55.5751C185.626 55.5306 185.835 55.3916 186.022 55.2674C186.209 55.1433 186.399 55.0109 186.447 54.9712C186.495 54.9316 186.639 54.8141 186.77 54.7081C187.114 54.4285 187.279 54.2465 187.279 54.1505C187.279 54.0992 187.221 54.0595 187.168 54.0728C187.082 54.0943 185.982 54.4815 185.633 54.6139C185.442 54.6867 185.077 54.824 184.822 54.9199C183.857 55.2823 183.316 55.5189 182.966 55.7308C182.894 55.7721 182.681 55.9127 182.489 56.0419C182.299 56.1725 181.996 56.3612 181.819 56.4621C181.475 56.6606 180.43 57.1917 180.158 57.3076C179.84 57.4432 179.476 57.5575 178.946 57.6881C177.48 58.0505 176.956 58.2855 175.87 59.0598C174.935 59.7266 174.297 60.2694 173.364 61.1878C173.104 61.4425 172.794 61.7404 172.677 61.8496C172.558 61.9587 172.369 62.1374 172.255 62.2466C172.033 62.4601 171.851 62.6207 171.444 62.9581C171.057 63.2791 170.849 63.4066 170.435 63.572C170.101 63.706 169.594 63.9642 169.364 64.1181C169.258 64.1892 169.108 64.3083 169.03 64.3828L168.888 64.5168L168.664 64.5284C168.542 64.535 168.348 64.5499 168.234 64.5632C167.321 64.6674 167.142 64.6658 166.331 64.53C166.144 64.5003 165.906 64.4622 165.802 64.4473C165.698 64.4324 165.542 64.4027 165.458 64.3795C165.372 64.3564 165.134 64.305 164.928 64.2636C164.184 64.1181 163.654 63.8964 163.239 63.5571C162.878 63.261 162.019 62.4253 161.64 61.9985C161.199 61.5005 160.752 61.0884 160.34 60.7972C160.246 60.731 160.097 60.6234 160.011 60.559C159.787 60.3902 159.633 60.2908 159.387 60.1486C158.902 59.8706 158.776 59.7581 158.265 59.136C157.934 58.7338 157.683 58.4344 157.58 58.3185C157.33 58.0372 156.93 57.607 156.832 57.5128C156.592 57.2844 155.93 56.8311 155.543 56.6309C155.191 56.4488 155.103 56.4141 154.6 56.2651C154.119 56.1228 154.004 56.0765 153.73 55.9127C153.629 55.8532 153.427 55.7407 153.283 55.6646C152.922 55.4743 152.59 55.284 152.088 54.9795C151.542 54.6503 151.18 54.47 150.786 54.3292C150.358 54.1787 149.044 53.8163 148.925 53.8163C148.875 53.8163 148.842 53.8444 148.842 53.8857C148.842 53.9272 149.148 54.1919 149.371 54.3441C149.747 54.6006 150.009 54.7429 150.46 54.9431C150.859 55.1202 150.897 55.1449 151.143 55.3799C151.266 55.4991 151.402 55.6215 151.445 55.653C151.488 55.6827 151.519 55.7109 151.517 55.7142C151.508 55.724 151.233 55.6248 150.918 55.4958C150.288 55.2393 149.914 55.1069 149.471 54.9829C149.203 54.9083 148.906 54.8157 148.238 54.594C147.205 54.2531 146.243 53.9702 145.648 53.8328C145.107 53.7072 143.489 53.3961 142.197 53.171C142.088 53.1512 141.954 53.1379 141.901 53.1412C141.82 53.1462 141.8 53.1528 141.773 53.1892C141.724 53.2553 141.758 53.353 141.876 53.4722C142.187 53.7832 143.115 54.1819 143.953 54.364C144.151 54.4054 144.191 54.4252 144.449 54.6022C144.614 54.7165 144.806 54.8322 145.16 55.0308C145.188 55.0473 145.197 55.0556 145.179 55.0507C145.094 55.0242 143.946 54.8024 143.555 54.7363C142.538 54.5642 140.817 54.3954 140.019 54.3889C139.763 54.3871 139.741 54.3889 139.697 54.4219C139.604 54.4914 139.634 54.5576 139.818 54.6767C140.271 54.9729 140.699 55.1053 141.628 55.2393C142.063 55.3022 142.098 55.3105 142.439 55.4626C142.713 55.5835 142.872 55.6397 143.319 55.7705C143.453 55.8101 143.56 55.8449 143.557 55.8465C143.554 55.8498 143.436 55.8449 143.297 55.8333C142.965 55.8085 142.081 55.8234 141.777 55.8598C141.454 55.8978 140.804 55.9922 140.478 56.0484C140.244 56.0898 140.191 56.1029 140.168 56.1328C140.11 56.2039 140.206 56.2866 140.483 56.4041C140.868 56.5663 140.999 56.5862 141.793 56.611C142.166 56.6242 142.296 56.6341 142.414 56.6606C142.801 56.7466 143.443 56.8079 144.199 56.8293C144.517 56.8377 144.78 56.8476 144.783 56.851C144.786 56.8542 144.738 56.8608 144.677 56.8675C144.408 56.8939 144.065 56.9536 143.559 57.0594C143.261 57.1223 142.988 57.1818 142.953 57.1917C142.885 57.21 142.803 57.2663 142.803 57.2927C142.803 57.3374 142.903 57.4068 143.028 57.445C143.211 57.5029 143.309 57.5178 143.679 57.5476C144.237 57.5921 144.368 57.6088 144.738 57.6898C144.965 57.7378 145.003 57.741 145.423 57.7494C145.67 57.7543 145.859 57.7643 145.845 57.7726C145.832 57.7792 145.701 57.8156 145.556 57.8519C145.251 57.9281 145.16 57.9595 144.944 58.0539C144.785 58.1233 144.745 58.1597 144.763 58.2177C144.775 58.2573 144.843 58.2805 145.185 58.3649C145.336 58.403 145.523 58.4509 145.602 58.4724C145.898 58.5551 146.026 58.5684 146.58 58.58L147.106 58.5899L147.204 58.6992C147.321 58.8298 147.399 58.868 147.619 58.9026C147.813 58.934 148.197 58.9622 148.432 58.9622C148.528 58.9622 148.62 58.9672 148.635 58.9722C148.666 58.9853 148.518 59.0549 148.25 59.1541C147.935 59.2716 147.937 59.3229 148.263 59.495C148.498 59.6208 148.66 59.6604 149.156 59.7151C149.289 59.73 149.405 59.7449 149.416 59.7481C149.428 59.7515 149.456 59.7928 149.481 59.8409C149.539 59.9582 149.744 60.1536 149.881 60.2248C149.942 60.2562 150.066 60.3057 150.157 60.3355C150.248 60.3654 150.346 60.4001 150.374 60.4133C150.432 60.4399 150.487 60.5292 150.505 60.6252C150.52 60.7128 150.548 60.7625 150.624 60.8369C150.776 60.9892 150.98 61.0852 151.355 61.181C151.46 61.2075 151.547 61.2323 151.551 61.2341C151.552 61.2373 151.567 61.3052 151.58 61.3846C151.61 61.5518 151.661 61.6907 151.738 61.7999C151.842 61.9505 152.093 62.1011 152.432 62.2136C152.641 62.2831 152.684 62.3112 152.737 62.4171C152.806 62.5511 153.022 62.8788 153.127 63.0078C153.261 63.1716 153.309 63.2064 153.501 63.2742C153.654 63.3288 153.675 63.3321 153.836 63.3271L154.008 63.3222L154.072 63.3933C154.107 63.433 154.181 63.5539 154.236 63.663C154.402 63.989 154.481 64.0354 154.825 64.0205C155.063 64.0105 155.029 63.989 155.214 64.2636C155.345 64.459 155.611 64.7401 155.75 64.8329C155.859 64.9057 156.002 64.9471 156.217 64.9701C156.314 64.9801 156.399 64.9918 156.402 64.995C156.405 64.9983 156.422 65.0381 156.438 65.0844C156.455 65.1307 156.503 65.2218 156.546 65.2862C156.735 65.5675 156.837 65.6569 157.175 65.8256L157.342 65.91L157.512 66.1549C157.904 66.7175 158.075 66.9128 158.257 67.012C158.34 67.0567 158.361 67.0617 158.484 67.0583C158.591 67.0567 158.622 67.0617 158.642 67.0832C158.654 67.0981 158.718 67.2023 158.785 67.3148C158.92 67.5465 159.21 67.9386 159.317 68.0396C159.42 68.1338 159.589 68.2447 159.696 68.2894C159.801 68.3324 159.971 68.3407 160.107 68.3076L160.189 68.2894L160.267 68.3572C160.373 68.4499 160.467 68.4929 160.601 68.5078C160.704 68.5194 160.724 68.5276 160.835 68.6121C161.015 68.7494 161.229 68.8702 161.358 68.9099C161.545 68.9662 161.72 68.9347 161.91 68.8107L161.998 68.7527L162.026 68.7924C162.223 69.0771 162.757 69.3516 163.262 69.4278C163.388 69.446 163.52 69.4542 163.691 69.4493L163.939 69.4443L163.974 69.585C163.993 69.6628 164.055 69.8646 164.111 70.0333C164.29 70.5761 164.331 70.7383 164.334 70.8838C164.338 71.0675 164.293 71.602 164.273 71.6285C164.263 71.64 164.174 71.6963 164.075 71.7525C163.5 72.0818 162.385 72.5352 161.583 72.7686C161.308 72.8479 160.34 73.0664 160.032 73.1177C159.898 73.1407 159.567 73.1821 159.299 73.2087C158.723 73.2666 158.437 73.3063 158.037 73.384C157.696 73.4502 157.615 73.4783 157.593 73.5346C157.547 73.6586 157.754 73.8059 158.071 73.8755C158.292 73.9234 158.791 73.925 159.192 73.8804L159.473 73.849L159.63 73.8936C159.716 73.9184 159.872 73.9499 159.978 73.9632C160.082 73.9763 160.201 73.9912 160.241 73.9962L160.313 74.0061L160.044 74.1451C159.897 74.2212 159.658 74.3504 159.516 74.4314C159.374 74.5108 159.192 74.6118 159.109 74.6564C159.028 74.6995 158.935 74.754 158.907 74.7756C158.843 74.8236 158.836 74.8832 158.89 74.9212C158.991 74.9923 159.415 75.0784 159.672 75.0784C159.822 75.0784 160.112 75.0387 160.287 74.9957L160.426 74.9592L160.512 75.0188C160.636 75.1032 160.726 75.1313 160.879 75.1313C161.086 75.1329 161.449 75.0221 161.786 74.8516L161.899 74.7954L161.866 74.8599C161.796 74.9973 161.806 75.176 161.889 75.2736C161.957 75.3547 162.044 75.3796 162.246 75.3746L162.425 75.3696L162.522 75.4605C162.64 75.5698 162.703 75.5913 162.911 75.5913H163.07L163.098 75.6442C163.148 75.7436 163.236 75.8362 163.351 75.9124C163.669 76.1241 163.864 76.1472 164.197 76.0132C164.273 75.9818 164.338 75.9587 164.339 75.9603C164.339 75.9619 164.369 76.0165 164.402 76.0794C164.51 76.2879 164.683 76.4633 164.819 76.5014C164.905 76.5261 165.001 76.5129 165.092 76.4682C165.127 76.4501 165.158 76.4352 165.162 76.4352C165.165 76.4352 165.173 76.5708 165.178 76.7364C165.19 77.1566 165.256 77.4032 165.364 77.4445C165.392 77.4561 165.406 77.4775 165.413 77.5223C165.436 77.653 165.476 77.7853 165.521 77.8863C165.559 77.969 165.577 77.9906 165.615 77.9988C165.701 78.0186 165.703 78.0203 165.703 78.0932C165.703 78.1858 165.744 78.3496 165.814 78.5216L165.87 78.6656L165.82 78.7467C165.792 78.793 165.737 78.8956 165.701 78.9751C165.663 79.0544 165.602 79.1538 165.564 79.1951C165.527 79.2349 165.478 79.3027 165.454 79.344C165.416 79.4134 165.405 79.4218 165.31 79.4466C165.132 79.4945 165.042 79.5756 164.991 79.7361C164.978 79.7776 164.938 79.8289 164.884 79.8802C164.788 79.9661 164.7 80.1168 164.683 80.2193C164.669 80.3104 164.711 80.4344 164.794 80.5386C164.839 80.5949 164.872 80.6213 164.897 80.6213C164.96 80.6213 164.975 80.5899 164.975 80.4609C164.975 80.3649 164.983 80.3219 165.014 80.2607C165.038 80.216 165.066 80.1713 165.079 80.1615C165.127 80.1217 165.315 80.0571 165.426 80.044C165.57 80.0241 165.718 79.9529 165.848 79.8387C165.926 79.7709 165.972 79.7444 166.022 79.7361C166.148 79.7146 166.219 79.6667 166.293 79.5525C166.31 79.526 166.313 79.5309 166.305 79.5889C166.292 79.6782 166.336 79.8337 166.386 79.8685C166.406 79.8834 166.462 79.9247 166.512 79.9611C166.606 80.0307 166.654 80.039 166.725 80.0025C166.801 79.9629 166.839 79.9066 166.876 79.7824C166.896 79.7164 166.919 79.6584 166.929 79.6518C166.977 79.6236 167.01 79.5029 167.01 79.3605V79.215L167.091 79.2729C167.251 79.3887 167.485 79.4615 167.635 79.4416C167.683 79.4367 167.705 79.4433 167.738 79.4714C167.801 79.5293 167.976 79.612 168.036 79.612C168.064 79.612 168.113 79.6005 168.143 79.5856C168.195 79.5625 168.208 79.5625 168.292 79.5872C168.396 79.617 168.668 79.7544 168.775 79.8321C168.833 79.8735 168.85 79.8784 168.871 79.8603C168.909 79.8289 168.913 79.8387 168.775 79.5458C168.731 79.4516 168.61 79.3208 168.529 79.2794C168.496 79.2629 168.411 79.2365 168.342 79.22C168.203 79.1902 168.156 79.1653 168.173 79.1305C168.18 79.1174 168.231 79.0246 168.289 78.9254C168.383 78.76 168.401 78.7367 168.497 78.6739C168.737 78.5167 168.78 78.4389 168.838 78.0699C168.846 78.017 168.863 77.9972 168.947 77.9392C169.068 77.8582 169.106 77.7986 169.121 77.6712C169.131 77.5918 169.136 77.5769 169.159 77.5851C169.234 77.6149 169.439 77.6596 169.502 77.6596C169.543 77.6596 169.596 77.6728 169.629 77.6926C169.707 77.739 169.849 77.7606 169.938 77.7407C169.978 77.7308 170.076 77.6944 170.157 77.6563C170.276 77.6 170.309 77.5918 170.341 77.605C170.423 77.6447 170.587 77.7803 170.643 77.8598C170.749 78.0054 170.822 77.9459 170.811 77.7224C170.806 77.6183 170.796 77.5835 170.761 77.5288C170.701 77.4395 170.453 77.241 170.311 77.1698C170.205 77.1185 170.175 77.1119 169.972 77.0954C169.849 77.0855 169.708 77.0821 169.659 77.0871L169.571 77.097L169.583 77.0225C169.588 76.9795 169.611 76.8853 169.634 76.8124C169.656 76.738 169.685 76.6106 169.699 76.5278C169.712 76.4451 169.728 76.3525 169.733 76.3227C169.74 76.2813 169.757 76.2631 169.806 76.2366C169.842 76.2184 169.884 76.1837 169.899 76.1621C169.95 76.0844 170.006 75.8974 170.023 75.7585C170.036 75.6392 170.046 75.6078 170.096 75.54C170.193 75.4076 170.223 75.3249 170.221 75.176C170.221 75.1049 170.21 74.9957 170.195 74.9361C170.182 74.8748 170.172 74.8236 170.175 74.8202C170.177 74.817 170.236 74.8583 170.306 74.9096C170.456 75.0221 170.63 75.1263 170.733 75.1677C171.049 75.2935 171.628 75.1082 171.752 74.8417L171.79 74.7574L171.944 74.7276C172.028 74.711 172.129 74.6812 172.171 74.6614C172.267 74.6118 172.348 74.4943 172.374 74.3635C172.394 74.2659 172.394 74.2643 172.445 74.2759C172.841 74.3586 173.046 74.3504 173.099 74.2494C173.148 74.1584 173.069 73.9482 172.909 73.7481C172.859 73.6852 172.821 73.6306 172.824 73.6272C172.827 73.6222 172.912 73.6339 173.011 73.6504C173.233 73.6868 173.939 73.6934 174.054 73.6586C174.118 73.6389 174.191 73.5743 174.191 73.5346C174.191 73.5065 174.062 73.3906 173.893 73.2666L173.738 73.1507L174.044 73.1407C174.393 73.1276 174.591 73.0962 174.826 73.0151C175.174 72.8942 175.299 72.8016 175.299 72.6642C175.299 72.5666 175.227 72.5485 174.55 72.4724C172.695 72.2654 171.866 72.0553 171.022 71.5805C170.671 71.3819 170.418 71.2181 170.418 71.1867C170.418 71.0939 170.491 70.3164 170.518 70.1228C170.552 69.8695 170.582 69.5419 170.589 69.3616L170.592 69.2457L170.705 69.2342C171.044 69.2011 171.357 69.029 171.606 68.7395C171.76 68.5624 171.843 68.4383 171.992 68.1636L172.111 67.9419L172.228 67.9568C172.445 67.9833 172.568 67.9734 172.667 67.9237C172.844 67.8326 172.972 67.6507 173.026 67.4074C173.052 67.2851 173.054 67.2817 173.097 67.2917C173.235 67.3231 173.296 67.3215 173.402 67.2867C173.461 67.2668 173.556 67.2205 173.61 67.1857C173.752 67.0931 173.911 66.883 173.935 66.7539L173.946 66.6943L174.08 66.6844C174.242 66.6728 174.421 66.6132 174.623 66.5024C174.989 66.3039 175.096 66.1532 175.114 65.8256L175.123 65.6651L175.174 65.6767C175.202 65.6834 175.285 65.6884 175.359 65.6866C175.525 65.6866 175.64 65.6353 175.778 65.5047C175.827 65.455 175.874 65.4153 175.879 65.4153C175.898 65.4153 175.966 65.278 175.985 65.2019L176.004 65.1258L176.12 65.1142C176.211 65.1059 176.269 65.086 176.406 65.0182C176.552 64.9454 176.598 64.9107 176.721 64.7898C176.799 64.7105 176.893 64.6111 176.931 64.5665C176.992 64.4954 177.004 64.4887 177.072 64.4887C177.293 64.4887 177.53 64.3894 177.897 64.1445C178.187 63.9509 178.276 63.86 178.371 63.6696C178.41 63.5869 178.443 63.5092 178.443 63.4976C178.443 63.4811 178.463 63.4793 178.523 63.4861C178.69 63.5092 178.865 63.4248 179.099 63.208L179.241 63.0773L179.324 63.0955C179.509 63.1386 179.595 63.1054 179.803 62.9036L179.946 62.7662L180.045 62.7845C180.282 62.8275 180.672 62.7133 180.972 62.513C181.074 62.4452 181.355 62.1722 181.519 61.982L181.59 61.8993L181.867 61.8893C182.132 61.881 182.148 61.8794 182.249 61.8297C182.309 61.8032 182.39 61.7503 182.431 61.7156C182.562 61.6013 182.548 61.6063 182.651 61.6411C182.807 61.6957 182.994 61.7138 183.257 61.7039C183.717 61.6874 183.889 61.6212 184.044 61.4061L184.077 61.3598L184.172 61.4011C184.286 61.4508 184.42 61.479 184.81 61.5351C185.323 61.6063 185.547 61.6063 185.785 61.5351C186.05 61.4558 186.174 61.2341 186.091 60.9892C186.073 60.9345 186.06 60.8882 186.061 60.8848C186.065 60.8832 186.139 60.9147 186.23 60.9578C186.518 61.0918 186.637 61.1232 187.138 61.1959C188.042 61.3267 188.219 61.3498 188.262 61.3383C188.327 61.3218 188.348 61.2638 188.313 61.1959C188.252 61.0768 187.552 60.4101 187.259 60.19C187.216 60.1568 187.183 60.1288 187.185 60.127C187.188 60.1238 187.256 60.132 187.337 60.1453C187.42 60.1586 187.587 60.1767 187.709 60.1866C187.963 60.2081 188.257 60.2661 188.702 60.3836C189.169 60.5077 189.177 60.5093 189.496 60.5077C189.728 60.5077 189.855 60.4961 190.142 60.4546C190.337 60.4266 190.635 60.3918 190.803 60.3769C191.1 60.3521 191.285 60.3206 191.351 60.2859C191.394 60.2612 191.393 60.1932 191.346 60.1635C191.303 60.1387 190.803 59.9715 190.345 59.8326C190.178 59.7813 189.85 59.6688 189.617 59.5811C189.251 59.4437 188.907 59.3262 187.714 58.934C187.612 58.901 187.531 58.8712 187.534 58.868C187.536 58.8662 187.59 58.8746 187.653 58.8895C187.721 58.9044 187.921 58.9193 188.148 58.9291C188.545 58.944 188.629 58.9557 188.934 59.0449C189.208 59.1244 189.278 59.1294 189.678 59.1012C190.307 59.0565 191.088 58.8976 191.49 58.7306C191.671 58.6561 192.351 58.3235 192.438 58.269C192.536 58.206 192.493 58.1332 192.342 58.1102C191.907 58.044 191.611 58.0158 191.201 58.0025C190.951 57.9943 190.623 57.9744 190.473 57.9595C190.284 57.9414 189.908 57.9297 189.256 57.9215C188.366 57.9082 188.305 57.9049 188.173 57.8718C188.024 57.8338 187.196 57.5575 187.175 57.5392C187.168 57.5327 187.228 57.5194 187.307 57.5062C187.598 57.4647 189.511 56.9568 189.837 56.8361C190.069 56.7484 190.295 56.6292 190.557 56.4554C190.875 56.2421 191.086 56.0649 191.515 55.6447C191.92 55.2493 191.98 55.1863 192.056 55.0738C192.145 54.9415 192.342 54.5427 192.342 54.4947C192.342 54.4434 192.306 54.3954 192.266 54.3954C192.231 54.3954 192.121 54.455 191.987 54.5443C191.924 54.5873 191.767 54.6851 191.639 54.7628C191.512 54.8405 191.311 54.9646 191.196 55.0374C190.959 55.1863 190.663 55.3419 190.373 55.4676C190.047 55.6083 189.157 55.9144 188.661 56.0566C188.489 56.1063 188.206 56.1874 188.032 56.2371C187.733 56.323 187.296 56.4224 187.263 56.4108C187.253 56.4075 187.36 56.3562 187.499 56.2933C187.999 56.0715 188.434 55.8069 188.793 55.5057C188.902 55.4131 189.102 55.2475 189.24 55.135C189.884 54.6089 190.176 54.3078 190.378 53.9668C190.514 53.7368 190.562 53.6028 190.613 53.2951C190.661 53.0056 190.641 52.8864 190.54 52.8764C190.489 52.8715 190.473 52.8832 190.335 53.0253Z" fill="white"/>
</g>
<mask id="mask1_4_3" style="mask-type:luminance" maskUnits="userSpaceOnUse" x="69" y="75" width="64" height="63">
<path d="M69.9426 75.3693H132.103V137.529H69.9426V75.3693Z" fill="white"/>
</mask>
<g mask="url(#mask1_4_3)">
<path fill-rule="evenodd" clip-rule="evenodd" d="M81.9747 109.436C82.013 109.451 82.0866 109.472 82.1402 109.482C82.2565 109.505 82.2536 109.511 82.0682 109.621C81.8199 109.77 81.6852 109.872 81.4124 110.12C81.2776 110.243 81.2578 110.284 81.3113 110.343C81.3358 110.37 81.3328 110.375 81.267 110.444C81.2302 110.484 81.152 110.575 81.0969 110.65C80.9804 110.804 80.9636 110.87 81.031 110.914L81.0678 110.939L80.9528 111.105C80.89 111.197 80.7981 111.315 80.7507 111.369C80.7015 111.423 80.6434 111.496 80.6189 111.535C80.5959 111.573 80.5469 111.639 80.5086 111.683C80.4197 111.789 80.3967 111.836 80.3967 111.913C80.3967 111.973 80.3906 111.982 80.3124 112.045C80.2603 112.087 80.1961 112.123 80.1409 112.14C79.9953 112.182 79.9371 112.207 79.8299 112.271C79.7747 112.304 79.7227 112.331 79.7166 112.331C79.7103 112.331 79.6767 112.307 79.643 112.277C79.6093 112.248 79.5281 112.198 79.4622 112.164L79.3442 112.101L79.3243 112.006C79.2967 111.87 79.2737 111.835 79.1712 111.754C79.1206 111.715 79.0593 111.651 79.0363 111.613C78.9949 111.545 78.9934 111.535 78.9995 111.4L79.0057 111.259H79.0624C79.1145 111.259 79.1727 111.233 79.2095 111.191C79.2187 111.182 79.3013 111.109 79.3932 111.026C79.4867 110.945 79.5848 110.854 79.6139 110.824L79.666 110.77L79.7043 110.799C79.7258 110.816 79.7517 110.83 79.7641 110.83C79.8115 110.83 79.9509 110.749 80.0674 110.652C80.1348 110.597 80.239 110.528 80.2971 110.497C80.3569 110.467 80.4519 110.412 80.5101 110.375C80.5699 110.336 80.6541 110.295 80.7016 110.284C80.8747 110.238 81.0524 110.123 81.3021 109.894C81.3818 109.822 81.5228 109.695 81.6147 109.612C81.7082 109.529 81.8 109.445 81.8199 109.425C81.8429 109.4 81.8644 109.391 81.8812 109.399C81.895 109.403 81.9364 109.422 81.9747 109.436ZM84.3753 88.8392C84.3646 88.8499 84.3186 88.8285 84.3186 88.8132C84.3186 88.804 84.3324 88.8055 84.3508 88.8147C84.3677 88.8254 84.3799 88.8362 84.3753 88.8392ZM73.0553 84.6476C73.0078 84.6767 73.0063 84.7487 73.0523 84.8436C73.1381 85.0183 73.659 85.507 74.0619 85.789C74.1215 85.8303 74.2211 85.9038 74.284 85.9513C74.3468 85.9988 74.4479 86.0693 74.5062 86.1107C74.5659 86.1505 74.5996 86.1796 74.5828 86.175C74.5506 86.1658 74.4249 86.1275 73.8933 85.9636C73.7248 85.913 73.5456 85.8579 73.495 85.8426C73.4445 85.8273 73.3203 85.789 73.2192 85.7583C72.9052 85.6603 72.4793 85.5407 71.9109 85.389C71.704 85.334 71.6305 85.3507 71.6535 85.4473C71.678 85.5423 72.0136 85.8227 72.5758 86.2179C72.778 86.3604 73.0814 86.5733 73.2499 86.6928C73.4184 86.8124 73.5992 86.9394 73.6529 86.9762C73.7048 87.013 73.7462 87.0452 73.7432 87.0467C73.7401 87.0498 73.6558 87.0207 73.5548 86.9824C73.4552 86.944 73.1703 86.8445 72.9236 86.7603C72.677 86.6775 72.2418 86.5258 71.9569 86.4247C71.6719 86.3237 71.4345 86.2409 71.4283 86.2409C71.4237 86.2409 71.3272 86.3022 71.3272 86.3787V86.5151L71.5984 86.6637C71.868 86.8827 72.2203 87.1448 72.3843 87.2459C72.464 87.2949 72.6615 87.4251 72.8209 87.5354C72.9818 87.6442 73.1703 87.7622 73.2422 87.799C73.3142 87.8342 73.3678 87.8649 73.3632 87.8649C73.3495 87.8649 72.487 87.6274 72.3153 87.5768C72.2311 87.5507 72.0841 87.5063 71.9891 87.4757C71.8925 87.445 71.8021 87.4206 71.7868 87.4206C71.7423 87.4206 71.7209 87.4603 71.7316 87.5216C71.7408 87.5645 71.7883 87.6228 71.9676 87.8066C72.1912 88.0364 72.5406 88.3612 72.7106 88.4975C72.8347 88.5971 73.0247 88.712 73.3341 88.876C73.4782 88.9525 73.6665 89.0552 73.7524 89.1042C73.8841 89.1793 73.9914 89.2283 74.1307 89.2789C74.2196 89.3111 73.9224 89.2666 73.256 89.1486C73.0722 89.1165 73.0599 89.1165 73.0216 89.141C72.9711 89.1747 72.9711 89.2053 73.0247 89.3019C73.1165 89.4734 73.4123 89.7691 73.682 89.9621C73.8382 90.074 74.405 90.4233 74.5751 90.5136L74.7083 90.5841L74.6608 90.6071C74.6349 90.6194 74.6119 90.6439 74.6088 90.6607C74.5996 90.7297 74.7834 90.9105 75.1648 91.2062C75.5617 91.514 75.8267 91.6673 76.2863 91.8542C76.4196 91.9079 76.5836 91.9767 76.651 92.0058C76.7183 92.0349 76.7888 92.0641 76.8087 92.0702C76.8761 92.0901 76.8409 92.1008 76.7214 92.0962C76.5836 92.0901 76.5361 92.107 76.5361 92.1606C76.5361 92.2127 76.628 92.2908 76.942 92.5008C77.3878 92.801 77.6085 92.9236 77.8995 93.037C78.1033 93.115 78.6426 93.2422 78.7729 93.2422C78.8003 93.2422 78.8356 93.2591 78.8678 93.2882C78.9382 93.3541 79.1911 93.4736 79.4086 93.5455C79.5097 93.5792 79.7304 93.6359 79.8988 93.6712C80.0674 93.7064 80.268 93.7478 80.3431 93.7646C80.6174 93.8229 80.8395 93.855 81.1321 93.878C81.5887 93.9133 81.5917 93.9133 81.5917 93.9531C81.5917 94.0098 81.6668 94.143 81.7419 94.2181C81.7816 94.2564 81.8628 94.3269 81.9241 94.3729C81.9854 94.4188 82.036 94.4648 82.036 94.474C82.036 94.4832 82.0283 94.52 82.0207 94.5551C81.9885 94.6915 81.9762 94.8294 81.99 94.8876C81.9977 94.9213 82.0421 95.0056 82.0896 95.0746C82.1371 95.1449 82.1708 95.2108 82.1662 95.22C82.1601 95.2292 82.082 95.2706 81.9916 95.3135C81.6438 95.4759 81.5442 95.626 81.6438 95.839C81.6959 95.9508 81.7801 96.0258 81.9762 96.1362C82.2383 96.2833 82.2168 96.2649 82.2091 96.3399C82.1984 96.435 82.226 96.5191 82.304 96.631C82.4098 96.7781 82.4343 96.8363 82.4343 96.9466C82.4343 97.0309 82.4297 97.0478 82.3945 97.08C82.3715 97.1013 82.347 97.1182 82.3408 97.1182C82.3025 97.1182 82.0299 97.2653 81.9686 97.3189C81.8736 97.4032 81.8475 97.4553 81.8475 97.5702C81.8475 97.6452 81.8582 97.6866 81.8966 97.7647C81.9226 97.8199 81.9441 97.8735 81.9441 97.8827C81.9441 97.8919 81.9211 97.9302 81.8935 97.9685C81.846 98.0359 81.8445 98.0467 81.8445 98.1799C81.8445 98.258 81.8506 98.3699 81.8582 98.4296C81.8705 98.5292 81.8674 98.5476 81.8307 98.6395C81.7879 98.7483 81.7787 98.8739 81.8061 98.975C81.8215 99.0256 81.8169 99.0425 81.7709 99.1358C81.6469 99.381 81.6132 99.5603 81.6607 99.7195C81.6806 99.7824 81.6821 99.8176 81.6683 99.9004C81.6591 99.9616 81.6561 100.07 81.6622 100.165C81.6714 100.32 81.6699 100.332 81.6346 100.404C81.5534 100.567 81.5412 100.631 81.5503 100.84C81.5611 101.054 81.6009 101.239 81.6591 101.337C81.6791 101.373 81.7404 101.452 81.7954 101.515L81.8935 101.63L81.9027 101.799C81.9088 101.89 81.9195 101.995 81.9272 102.028C81.9349 102.062 81.9502 102.2 81.9594 102.335C81.9946 102.823 82.0299 102.903 82.301 103.111C82.3669 103.162 82.4374 103.228 82.4588 103.26C82.5385 103.381 82.7377 103.447 82.9261 103.415C83.1099 103.384 83.2417 103.326 83.5573 103.139L83.614 103.105L83.6002 103.144C83.591 103.165 83.5665 103.219 83.545 103.263C83.4791 103.392 83.3566 103.726 83.3153 103.887C83.2937 103.968 83.2693 104.123 83.2586 104.23C83.2448 104.382 83.2356 104.428 83.2172 104.434C83.1942 104.443 82.8908 104.452 81.6377 104.481C81.1735 104.49 80.7599 104.473 80.5346 104.435C80.4626 104.421 80.2804 104.374 80.1287 104.326C79.977 104.28 79.6982 104.204 79.5082 104.158C78.8969 104.008 78.739 103.965 78.5124 103.89C77.9271 103.695 77.1198 103.301 76.2955 102.808C75.9217 102.584 74.8355 101.913 74.5751 101.745C74.2625 101.543 74.2104 101.518 74.1523 101.544C74.0864 101.573 74.1077 101.656 74.2426 101.9C74.6058 102.558 74.955 103.001 75.4759 103.459C75.5372 103.513 75.5832 103.56 75.5801 103.563C75.577 103.566 75.4376 103.514 75.2706 103.445C74.8953 103.294 74.8355 103.289 74.8355 103.41C74.8355 103.491 74.9136 103.628 75.1113 103.897C75.2859 104.133 75.4345 104.268 75.6949 104.426C75.7639 104.467 75.8252 104.507 75.8298 104.512C75.839 104.521 75.7012 104.509 75.6062 104.493C75.5709 104.487 75.551 104.492 75.5265 104.516C75.4836 104.559 75.4851 104.573 75.5479 104.679C75.7179 104.961 76.1454 105.356 76.4503 105.515L76.5713 105.58L76.5253 105.598C76.3951 105.653 76.4656 105.837 76.6939 106.039C76.9374 106.255 77.106 106.367 77.3848 106.497C77.4828 106.542 77.538 106.577 77.5334 106.589C77.4905 106.744 77.6422 106.883 78.0957 107.11L78.376 107.249L78.3024 107.286C78.2626 107.306 78.2091 107.344 78.1861 107.369C78.0926 107.47 78.1738 107.554 78.543 107.741C78.8126 107.876 78.9919 107.942 79.2216 107.989C79.3457 108.015 79.3565 108.02 79.3473 108.049C79.2982 108.196 79.3381 108.256 79.5587 108.362C79.6445 108.405 79.7425 108.449 79.7747 108.463L79.836 108.487L79.7195 108.605C79.5066 108.823 79.3304 109.059 79.1589 109.354C79.0838 109.482 79.0777 109.535 79.1313 109.56L79.1681 109.578L79.0777 109.695C79.0271 109.759 78.9551 109.851 78.9168 109.898C78.8203 110.021 78.6961 110.229 78.6961 110.272C78.6961 110.292 78.7085 110.317 78.7223 110.327C78.7453 110.344 78.7499 110.373 78.7499 110.523C78.7499 110.687 78.7467 110.706 78.7024 110.801L78.6549 110.9L78.5185 110.951C78.1784 111.075 78.1125 111.109 77.9654 111.234C77.849 111.332 77.7509 111.378 77.4292 111.489C77.2087 111.562 76.8486 111.746 76.7275 111.844C76.5989 111.951 76.5008 112.124 76.5514 112.155C76.5621 112.161 76.5437 112.192 76.5085 112.23C76.4288 112.317 76.2986 112.512 76.2449 112.625C76.1945 112.732 76.1698 112.901 76.1991 112.936C76.2373 112.982 76.2786 112.958 76.461 112.775C76.6907 112.546 76.7628 112.497 76.9466 112.448C77.1213 112.402 77.1794 112.368 77.3526 112.216C77.4261 112.152 77.4859 112.104 77.4859 112.112C77.4859 112.118 77.443 112.176 77.3909 112.239C77.3373 112.302 77.2806 112.385 77.2653 112.423C77.2499 112.461 77.2133 112.541 77.184 112.601C77.1106 112.754 77.0845 112.919 77.0968 113.148C77.1091 113.351 77.129 113.402 77.1932 113.381C77.2194 113.373 77.2469 113.33 77.2959 113.224C77.3924 113.018 77.4966 112.875 77.7187 112.647C77.826 112.536 77.9317 112.422 77.9532 112.392C77.9746 112.363 78.0436 112.288 78.1064 112.224C78.1999 112.127 78.2319 112.104 78.2948 112.087C78.3361 112.078 78.4143 112.048 78.4664 112.023C78.5583 111.98 78.5645 111.979 78.592 112.005C78.6074 112.019 78.6472 112.08 78.6809 112.14C78.7145 112.201 78.7697 112.281 78.8034 112.319C78.857 112.38 78.8632 112.395 78.8555 112.44C78.8402 112.523 78.7683 112.636 78.6365 112.783C78.5078 112.926 78.4878 112.976 78.543 113.005C78.6028 113.037 78.9107 112.858 79.0195 112.728C79.0532 112.687 79.0869 112.653 79.093 112.653C79.0976 112.653 79.1313 112.711 79.1666 112.782C79.2018 112.852 79.2524 112.935 79.2768 112.964C79.332 113.025 79.335 113.036 79.2967 113.036C79.2814 113.036 79.2078 113.068 79.1329 113.106C78.9704 113.189 78.9091 113.212 78.7223 113.252C78.6441 113.269 78.5522 113.296 78.517 113.313C78.3959 113.371 78.284 113.535 78.2825 113.656C78.2825 113.718 78.2825 113.718 78.1784 113.759C78.0742 113.8 78.0237 113.817 77.6974 113.917C77.5258 113.97 77.5012 113.986 77.5012 114.041C77.5012 114.079 77.607 114.111 77.7311 114.113C77.9762 114.114 78.1095 114.107 78.206 114.085C78.4587 114.032 78.5399 114.01 78.5966 113.981C78.6702 113.944 78.7988 113.851 78.8463 113.797C78.8662 113.776 78.9551 113.722 79.0455 113.678C79.1344 113.633 79.2492 113.564 79.3013 113.526C79.3534 113.486 79.4055 113.45 79.4147 113.442C79.4254 113.436 79.4132 113.473 79.3871 113.523C79.2599 113.774 79.2216 113.878 79.2032 114.023C79.194 114.096 79.1911 114.099 79.1252 114.125C78.8432 114.234 78.8003 114.255 78.7436 114.312C78.6763 114.378 78.6595 114.413 78.6349 114.539C78.6227 114.6 78.6028 114.644 78.5645 114.689C78.5062 114.756 78.3101 114.871 78.1798 114.913C78.1003 114.939 78.0742 114.969 78.0926 115.017C78.0972 115.029 78.1493 115.058 78.2074 115.08C78.3086 115.116 78.3224 115.118 78.425 115.102C78.5767 115.08 78.6855 115.024 78.8034 114.911C78.8586 114.859 78.952 114.79 79.0103 114.759C79.1788 114.669 79.2432 114.62 79.4224 114.445C79.7166 114.16 79.8712 113.909 79.9295 113.621C79.9708 113.413 80.0153 113.33 80.1256 113.261C80.262 113.174 80.363 113.048 80.7659 112.472C80.8517 112.35 80.9314 112.251 80.959 112.235C80.9912 112.216 81.0616 112.202 81.1735 112.193C81.2638 112.186 81.3619 112.172 81.3895 112.161C81.4354 112.146 81.4431 112.147 81.463 112.176C81.4768 112.196 81.5028 112.209 81.5289 112.209C81.5871 112.209 81.725 112.166 81.7954 112.127L81.8521 112.095L81.8766 112.129C81.8904 112.149 81.9165 112.163 81.9379 112.163C81.9578 112.163 82.1249 112.089 82.3086 112C82.8188 111.752 82.8403 111.746 83.2387 111.72C83.5312 111.7 83.6033 111.689 83.8744 111.625C84.3937 111.502 84.9238 111.289 85.2058 111.089C85.2686 111.044 85.434 110.897 85.5734 110.761L85.8278 110.514L85.8997 110.532C85.9395 110.543 86.082 110.571 86.2138 110.594C86.5217 110.647 86.8159 110.65 87.0104 110.603L87.1376 110.574L87.3934 110.687C87.9174 110.919 88.0262 110.946 88.397 110.932C88.7432 110.922 89.0312 110.84 89.2595 110.69C89.3223 110.649 89.379 110.617 89.385 110.62C89.3913 110.621 89.3942 110.635 89.3928 110.652C89.3836 110.698 89.4034 110.752 89.4342 110.768C89.457 110.779 89.5199 110.767 89.6991 110.716C90.1388 110.589 90.367 110.473 90.4804 110.315C90.5356 110.238 90.554 110.231 90.554 110.286C90.554 110.34 90.6061 110.364 90.652 110.333C90.7103 110.297 90.9141 110.021 91.1423 109.673C91.3936 109.292 91.5191 109.154 91.6647 109.1C91.7413 109.071 91.798 109.063 92.017 109.057C92.5287 109.04 92.6513 109.079 93.1829 109.423C93.2841 109.489 93.3821 109.543 93.4005 109.543C93.4617 109.543 93.4816 109.486 93.4816 109.296C93.4816 109.023 93.4097 108.705 93.2825 108.411C93.1983 108.218 93.1247 108.118 92.9072 107.902L92.7141 107.712L92.7295 107.658C92.7525 107.585 92.7509 107.469 92.7264 107.421C92.6636 107.302 92.4874 107.173 92.1396 106.992C91.9987 106.919 91.9588 106.893 91.9895 106.893C92.0002 106.893 92.1274 106.837 92.2729 106.771C92.4184 106.704 92.6314 106.612 92.7448 106.565C92.8582 106.519 93.0297 106.445 93.1262 106.402C93.2228 106.358 93.3745 106.298 93.4634 106.269C93.6226 106.217 93.6318 106.215 93.932 106.209C94.1006 106.205 94.2799 106.195 94.3304 106.186C94.5234 106.154 94.81 106.045 94.9937 105.933C95.0412 105.904 95.0887 105.881 95.0979 105.881C95.1071 105.881 95.1485 105.938 95.1883 106.007C95.2925 106.186 95.3937 106.281 95.5453 106.339C95.6127 106.365 95.697 106.39 95.7322 106.396C95.7675 106.402 95.7981 106.415 95.8012 106.424C95.8042 106.433 95.8211 106.49 95.8379 106.551C95.864 106.638 95.8854 106.678 95.9498 106.747C95.9926 106.794 96.0662 106.859 96.1121 106.889C96.1887 106.94 96.1995 106.955 96.2301 107.046C96.2485 107.101 96.2776 107.173 96.2945 107.207C96.4048 107.418 96.7571 107.606 97.2688 107.727L97.4496 107.77L97.4389 107.894C97.4221 108.11 97.4955 108.299 97.6487 108.431C97.7775 108.541 98.07 108.685 98.2554 108.731C98.3091 108.745 98.3275 108.76 98.3596 108.815C98.4638 108.991 98.6216 109.06 98.9096 109.051L99.0842 109.045L99.1026 109.106C99.1379 109.224 99.2114 109.342 99.285 109.396C99.455 109.52 99.7446 109.635 99.8901 109.635C99.933 109.635 99.9759 109.641 99.9851 109.647C99.9928 109.653 100.037 109.711 100.082 109.776C100.178 109.915 100.252 109.987 100.359 110.041C100.455 110.09 100.745 110.157 100.886 110.163L100.993 110.168L101.08 110.295C101.198 110.465 101.283 110.56 101.457 110.716C101.63 110.87 101.752 110.943 101.96 111.021C102.202 111.112 102.373 111.11 102.467 111.015C102.501 110.983 102.505 110.966 102.499 110.914C102.482 110.767 102.315 110.37 102.099 109.96C102.021 109.813 101.9 109.529 101.909 109.52C101.912 109.517 101.964 109.612 102.027 109.731C102.23 110.122 102.424 110.39 102.81 110.81C103.389 111.44 103.947 111.856 104.426 112.017C104.52 112.049 104.633 112.091 104.679 112.109C104.938 112.216 105.096 112.251 105.145 112.21C105.2 112.164 105.177 112.12 104.938 111.806C104.449 111.165 104.065 110.629 103.742 110.136C103.526 109.805 103.185 109.238 103.198 109.227C103.201 109.224 103.235 109.267 103.271 109.324C103.864 110.225 104.187 110.635 104.731 111.174C105.108 111.547 105.49 111.849 105.903 112.097C106.098 112.213 106.197 112.258 106.456 112.339C106.671 112.406 106.824 112.412 106.931 112.359C106.996 112.325 107 112.319 107.005 112.253C107.009 112.186 107.002 112.17 106.839 111.931C106.663 111.669 106.553 111.512 106.265 111.096C105.903 110.578 105.824 110.448 105.275 109.497C105.079 109.155 104.819 108.703 104.698 108.493C104.48 108.117 104.423 108.008 104.469 108.057C104.48 108.069 104.55 108.15 104.624 108.238C104.819 108.466 105.199 108.867 105.644 109.313C105.85 109.52 106.372 109.984 106.665 110.218C106.888 110.401 107.417 110.71 107.762 110.862C108.093 111.009 108.525 111.145 108.75 111.176C108.833 111.187 108.921 111.165 108.961 111.125C108.989 111.099 108.99 111.033 108.964 110.987C108.915 110.9 108.214 110.185 107.146 109.138C106.796 108.795 106.455 108.454 106.389 108.382C106.322 108.308 106.029 108.008 105.739 107.715C105.45 107.421 105.217 107.177 105.22 107.173C105.225 107.168 105.365 107.252 105.534 107.358C105.89 107.582 106.038 107.669 106.25 107.781C106.606 107.971 106.861 108.12 107.137 108.302C107.414 108.486 107.474 108.536 107.582 108.676C107.823 108.987 107.918 109.089 108.177 109.316C108.492 109.593 108.59 109.661 108.891 109.811C109.13 109.93 109.678 110.13 109.864 110.163C110.014 110.192 110.081 110.133 110.035 110.012C110 109.92 109.883 109.731 109.749 109.546C109.52 109.235 109.383 109.034 109.039 108.512C108.907 108.313 108.754 108.084 108.698 108.006C108.563 107.819 108.434 107.637 108.313 107.459C108.137 107.2 108.005 107.035 107.864 106.902C107.725 106.768 107.706 106.741 107.805 106.805C108.062 106.98 108.886 107.446 109.168 107.577C109.444 107.706 109.992 107.908 110.248 107.974C110.479 108.035 110.654 107.976 110.654 107.835C110.654 107.738 110.677 107.76 109.352 106.555C108.387 105.678 108.29 105.592 108.042 105.391C107.683 105.102 107.585 105.052 106.809 104.763C106.279 104.565 105.562 104.264 104.955 103.985C104.405 103.732 103.818 103.485 103.454 103.354C103.005 103.191 102.825 103.121 102.442 102.954C101.709 102.635 101.658 102.618 101.194 102.534C101.068 102.511 100.851 102.466 100.711 102.434C100.572 102.402 100.362 102.358 100.244 102.335C100.126 102.313 99.9821 102.286 99.9223 102.273C99.7108 102.232 99.2911 102.171 99.1256 102.159C99.0338 102.151 98.8606 102.148 98.7426 102.152C97.6472 102.183 97.2918 102.275 96.2914 102.787C95.9759 102.949 95.9253 102.975 95.4105 103.254C94.623 103.681 94.2002 103.865 93.4954 104.087C93.3055 104.146 93.0711 104.224 92.9745 104.257C92.8781 104.293 92.7571 104.334 92.7065 104.352C92.5441 104.407 92.1595 104.604 91.9833 104.723C91.7735 104.864 91.4594 105.088 91.1791 105.296C90.6827 105.664 90.6122 105.696 90.2737 105.708L90.0484 105.717L89.9534 105.642C89.8217 105.54 89.4647 105.364 89.2441 105.293C89.143 105.261 89.0327 105.221 88.999 105.207C88.9024 105.164 88.6022 104.939 88.4704 104.81C88.3066 104.65 88.1886 104.464 87.9679 104.028C87.6447 103.39 87.6401 103.37 87.6386 102.871C87.637 102.686 87.6447 102.451 87.6554 102.35C87.68 102.123 87.7581 101.616 87.7949 101.449C87.8899 101.017 88.2422 99.8038 88.6053 98.6578C88.688 98.399 88.7416 98.2228 88.9178 97.6467C88.9423 97.5624 89.022 97.3097 89.0924 97.0846C89.2947 96.438 89.4754 95.698 89.5444 95.2262C89.647 94.5261 89.5689 94.0449 89.2441 93.3878C88.8995 92.6922 88.616 92.2449 87.9587 91.3579C87.8163 91.1663 87.4087 90.7573 87.0395 90.4341C86.6688 90.1092 86.5723 90.0341 86.1954 89.7814C85.7297 89.4688 85.5045 89.3402 85.1383 89.1747C85.0296 89.1257 84.9192 89.0705 84.8932 89.0521C84.4474 88.735 84.1471 88.5665 83.6217 88.3398C83.0333 88.087 82.828 87.9919 82.2735 87.7086C81.3604 87.2428 79.5388 86.3344 79.2478 86.1995C78.6748 85.9344 77.7586 85.5561 76.8654 85.2145C76.6725 85.1409 76.415 85.0413 76.297 84.9938C76.1775 84.9463 76.0673 84.908 76.0504 84.908C75.9968 84.908 75.9677 84.9555 75.9845 85.0153C76.006 85.0873 76.1056 85.2497 76.2189 85.3907C76.3491 85.553 76.6326 85.8486 76.7413 85.9344C76.7888 85.9728 76.8225 86.0049 76.8149 86.008C76.7827 86.0187 75.7532 85.6603 75.3028 85.4825C75.0837 85.3953 74.9183 85.3294 74.1615 85.0199C73.2453 84.6461 73.1272 84.6062 73.0553 84.6476Z" fill="white"/>
</g>
<mask id="mask2_4_3" style="mask-type:luminance" maskUnits="userSpaceOnUse" x="211" y="59" width="59" height="59">
<path d="M224.064 59.3646L269.698 72.1453L256.917 117.78L211.283 104.999L224.064 59.3646Z" fill="white"/>
</mask>
<g mask="url(#mask2_4_3)">
<path fill-rule="evenodd" clip-rule="evenodd" d="M262.802 81.3032C262.688 81.3269 262.473 81.4158 262.078 81.6047C261.603 81.8319 261.459 81.9167 261.059 82.2024C260.662 82.4842 260.528 82.6058 260.061 83.103C259.776 83.4053 259.404 83.7766 259.193 83.9699C259.09 84.0648 258.969 84.1765 258.926 84.2189C258.881 84.261 258.843 84.2939 258.842 84.2914C258.838 84.2841 259.066 83.9924 259.224 83.7991C259.298 83.7082 259.453 83.532 259.569 83.4057C259.866 83.0825 260.176 82.6648 260.485 82.1727C260.835 81.6168 260.912 81.4189 260.793 81.3856C260.623 81.338 259.656 82.0644 259.148 82.6231C259.078 82.7005 258.793 83.0682 258.787 83.0896C258.783 83.1043 258.493 83.5144 258.446 83.5726C258.424 83.5991 258.361 83.6858 258.307 83.7642C258.252 83.8423 258.158 83.9771 258.097 84.0633C258.035 84.1491 257.933 84.3035 257.867 84.4051C257.642 84.7569 257.494 84.9812 257.4 85.11C257.317 85.225 257.302 85.2402 257.271 85.2424C257.251 85.2431 257.234 85.2394 257.232 85.2351C257.229 85.2308 257.28 85.1503 257.345 85.0569C257.788 84.4159 257.908 84.23 258.171 83.7745C258.388 83.3975 258.569 83.0359 258.653 82.8107C258.75 82.5563 258.65 82.4181 258.456 82.5348C258.376 82.5816 258.317 82.6377 257.9 83.0618C257.727 83.2367 257.461 83.5381 257.328 83.7058C257.132 83.952 256.841 84.398 256.659 84.7279C256.593 84.8477 256.345 85.2683 256.281 85.368C256.259 85.4019 256.194 85.5087 256.136 85.6062C256.077 85.7026 256.011 85.809 255.989 85.8418C255.967 85.8744 255.906 85.9724 255.851 86.0579C255.669 86.3511 255.648 86.3806 255.613 86.4049C255.594 86.4188 255.434 86.5111 255.26 86.6092C254.932 86.7938 254.805 86.8843 254.571 87.0965C254.42 87.2325 254.339 87.3226 254.187 87.5167C254.012 87.7416 253.99 87.7719 253.882 87.9588C253.725 88.229 253.518 88.6794 253.337 89.1464C253.133 89.6704 253.016 89.9275 252.808 90.3024C252.608 90.6637 251.987 91.5874 251.783 91.8262C251.748 91.8686 251.675 91.9572 251.618 92.025C251.408 92.2827 251.173 92.5153 250.892 92.7435C250.694 92.9039 250.326 93.2436 250.171 93.4087C249.996 93.5962 249.914 93.7237 249.654 94.2149C249.436 94.6293 249.284 94.8875 249.144 95.0799C249.011 95.2635 248.839 95.469 248.828 95.4599C248.662 95.3198 248.529 95.2267 248.32 95.1052C248.057 94.9501 247.864 94.8549 247.758 94.8253C247.669 94.8004 247.548 94.7956 247.48 94.8141C247.403 94.8338 247.289 94.9036 247.217 94.9722C247.183 95.005 247.149 95.0307 247.141 95.0285C247.134 95.0266 247.046 95.0105 246.947 94.9925C246.593 94.9284 246.435 94.9678 246.299 95.1542C246.236 95.2396 246.201 95.3183 246.182 95.415C246.156 95.5531 246.158 95.6581 246.19 95.6779C246.226 95.7013 246.261 95.6786 246.358 95.5684C246.41 95.5067 246.465 95.4542 246.479 95.452C246.524 95.4416 246.617 95.4615 246.659 95.4902C246.716 95.5292 246.738 95.595 246.758 95.7704C246.777 95.9478 246.807 96.0728 246.863 96.1999C246.901 96.2882 247.009 96.4834 247.067 96.569C247.149 96.6899 247.343 96.9094 247.563 97.1287C247.616 97.1823 247.658 97.2327 247.655 97.2418C247.649 97.2631 247.592 97.338 247.432 97.5299C247.249 97.7515 247.146 97.8645 246.901 98.1113C246.446 98.5698 246.212 98.759 245.592 99.1735C245.284 99.3785 244.04 100.076 243.34 100.435C242.802 100.711 242.069 101.114 241.763 101.303C241.014 101.764 240.475 102.212 239.964 102.801C239.813 102.974 239.707 103.112 239.626 103.24C239.543 103.371 239.457 103.492 239.416 103.537C239.397 103.558 239.292 103.644 239.184 103.726C239.075 103.81 238.906 103.952 238.807 104.041C238.596 104.236 238.478 104.314 238.098 104.516C237.219 104.982 236.953 105.15 236.541 105.505C236.313 105.701 236.126 105.886 236.1 105.943C236.079 105.988 236.098 106.03 236.147 106.044C236.173 106.051 236.227 106.04 236.349 106C236.798 105.852 237.117 105.742 237.196 105.709C237.307 105.663 237.741 105.413 238.025 105.236C238.277 105.076 238.671 104.823 238.721 104.79C238.74 104.777 238.754 104.771 238.752 104.778C238.742 104.812 238.275 105.247 238.094 105.392C237.821 105.608 237.583 105.818 237.241 106.144C237.12 106.261 237.001 106.374 236.976 106.397C236.704 106.654 236.091 107.381 235.762 107.835C235.655 107.984 235.643 108.008 235.661 108.042C235.69 108.104 235.741 108.096 236.026 107.985C236.27 107.889 236.552 107.762 236.676 107.689C236.956 107.525 237.548 107.01 238.025 106.515C238.148 106.39 238.269 106.264 238.294 106.239C238.321 106.212 238.406 106.122 238.484 106.037C238.568 105.947 238.618 105.898 238.608 105.92C238.566 106.005 238.311 106.364 237.971 106.822C237.924 106.885 237.848 106.99 237.802 107.053C237.629 107.295 237.424 107.577 237.346 107.677C236.988 108.14 236.646 108.721 236.352 109.363C236.302 109.473 236.22 109.64 236.169 109.734C236.069 109.923 236.051 109.972 236.07 110.006C236.096 110.053 236.135 110.048 236.263 109.978C236.331 109.942 236.458 109.879 236.546 109.84C236.833 109.712 237.144 109.515 237.297 109.366C237.391 109.273 237.496 109.129 237.557 109.005C237.586 108.946 237.663 108.812 237.729 108.707C237.795 108.601 237.913 108.407 237.99 108.276C238.437 107.523 238.747 107.021 238.742 107.058C238.738 107.09 238.59 107.399 238.454 107.659C238.399 107.767 238.301 107.97 238.239 108.109C238.177 108.249 238.089 108.44 238.047 108.535C237.925 108.799 237.883 108.918 237.553 109.925C237.446 110.252 237.308 110.744 237.304 110.818C237.295 110.95 237.355 110.991 237.47 110.936C237.659 110.845 237.982 110.588 238.155 110.391C238.316 110.206 238.524 109.901 238.652 109.66C238.736 109.502 238.884 109.183 238.958 109.002C239.02 108.845 239.118 108.56 239.239 108.175C239.279 108.044 239.317 107.941 239.32 107.945C239.324 107.95 239.226 108.302 239.104 108.73C238.756 109.938 238.572 110.742 238.55 111.156C238.539 111.364 238.551 111.423 238.609 111.439C238.658 111.453 238.705 111.425 238.826 111.309C238.941 111.198 239.25 110.883 239.341 110.783C239.461 110.652 239.631 110.353 239.717 110.123C239.743 110.054 239.779 109.961 239.798 109.916C239.901 109.676 240.072 109.095 240.165 108.673C240.178 108.607 240.192 108.557 240.196 108.562C240.198 108.566 240.187 108.689 240.171 108.834C240.104 109.396 240.062 109.941 240.039 110.53C240.035 110.613 240.027 110.773 240.019 110.886C239.996 111.224 240.006 111.309 240.07 111.327C240.116 111.34 240.153 111.321 240.241 111.237C240.356 111.127 240.4 111.071 240.719 110.64C240.767 110.576 240.849 110.423 240.968 110.178C241.088 109.932 241.105 109.889 241.177 109.63C241.216 109.494 241.295 109.221 241.355 109.025L241.463 108.667L241.492 108.817C241.538 109.048 241.602 109.142 241.714 109.151C241.764 109.155 241.965 109.089 242.048 109.041C242.135 108.991 242.214 108.916 242.31 108.794C242.436 108.635 242.488 108.545 242.556 108.37L242.585 108.296L242.625 108.357C242.706 108.482 242.818 108.549 242.917 108.528C243.012 108.509 243.137 108.421 243.235 108.303C243.288 108.24 243.41 108.046 243.444 107.971C243.477 107.899 243.479 107.898 243.563 107.945C243.706 108.025 243.822 108.021 243.949 107.931C244.095 107.828 244.177 107.704 244.251 107.479C244.303 107.317 244.312 107.306 244.357 107.356C244.375 107.378 244.402 107.39 244.465 107.407C244.684 107.463 244.922 107.331 245.038 107.084C245.049 107.061 245.076 106.991 245.098 106.929C245.121 106.866 245.143 106.814 245.146 106.811C245.15 106.81 245.17 106.818 245.189 106.83C245.253 106.869 245.379 106.897 245.474 106.892C245.638 106.884 245.8 106.824 245.856 106.751C245.94 106.641 246.014 106.403 246.024 106.207C246.025 106.183 246.028 106.183 246.106 106.211C246.171 106.232 246.198 106.237 246.243 106.231C246.325 106.219 246.466 106.151 246.534 106.09C246.592 106.039 246.73 105.864 246.781 105.775C246.806 105.732 246.808 105.732 246.833 105.751C246.929 105.821 247.12 105.864 247.251 105.845C247.44 105.815 247.53 105.702 247.619 105.381L247.66 105.235L247.759 105.263C247.844 105.287 247.867 105.288 247.929 105.277C248.059 105.254 248.173 105.164 248.278 105.002L248.314 104.945L248.423 104.976C248.527 105.005 248.537 105.005 248.629 104.989C248.845 104.947 248.981 104.799 249.077 104.494L249.126 104.342L249.164 104.353C249.261 104.38 249.375 104.335 249.461 104.238C249.528 104.163 249.596 104.028 249.602 103.96C249.605 103.922 249.606 103.921 249.662 103.922C249.747 103.925 249.889 103.891 249.964 103.85C250.001 103.83 250.054 103.787 250.084 103.755C250.131 103.7 250.137 103.689 250.173 103.562C250.194 103.487 250.212 103.409 250.213 103.387L250.215 103.348L250.255 103.369C250.34 103.412 250.419 103.411 250.521 103.367C250.647 103.312 250.716 103.227 250.778 103.058L250.816 102.953L250.878 102.962C251 102.978 251.144 102.923 251.22 102.83C251.275 102.763 251.323 102.65 251.348 102.536L251.369 102.435L251.414 102.448C251.514 102.476 251.624 102.431 251.713 102.325C251.767 102.261 251.839 102.133 251.861 102.06C251.873 102.017 251.887 102.026 251.89 102.08C251.901 102.245 251.993 102.649 252.126 103.126C252.169 103.278 252.211 103.43 252.221 103.464C252.327 103.857 252.583 104.545 252.748 104.883C252.818 105.025 252.979 105.275 253.031 105.323C253.151 105.43 253.304 105.396 253.426 105.233C253.462 105.185 253.579 104.918 253.646 104.727L253.69 104.604L253.761 104.696C253.829 104.783 253.924 104.89 254.094 105.066C254.317 105.296 254.467 105.333 254.592 105.189C254.707 105.056 254.81 104.682 254.796 104.444L254.791 104.374L254.815 104.388C255.004 104.505 255.228 104.62 255.31 104.643C255.357 104.656 255.464 104.657 255.528 104.643C255.662 104.615 255.691 104.466 255.627 104.119C255.611 104.034 255.591 103.931 255.58 103.89C255.57 103.849 255.565 103.814 255.569 103.812C255.573 103.809 255.655 103.844 255.753 103.89C255.884 103.949 255.973 103.983 256.097 104.019C256.259 104.065 256.268 104.067 256.337 104.054C256.421 104.038 256.451 104.022 256.485 103.971C256.52 103.92 256.534 103.816 256.518 103.704C256.505 103.613 256.447 103.382 256.42 103.32C256.399 103.266 256.407 103.26 256.464 103.286C256.532 103.315 256.68 103.337 256.862 103.343C257.079 103.35 257.147 103.325 257.173 103.23C257.192 103.163 257.173 103.113 257.032 102.837L256.952 102.679L257.048 102.691C257.278 102.722 257.552 102.689 257.635 102.623C257.672 102.594 257.685 102.574 257.697 102.531C257.726 102.425 257.678 102.294 257.493 101.984C257.427 101.873 257.374 101.778 257.375 101.773C257.377 101.768 257.391 101.769 257.409 101.774C257.469 101.79 257.712 101.81 257.842 101.809C258.093 101.805 258.215 101.763 258.241 101.668C258.264 101.586 258.242 101.519 258.099 101.239C258.082 101.208 258.079 101.185 258.09 101.188C258.113 101.195 258.391 101.208 258.424 101.204C258.507 101.194 258.548 101.128 258.529 101.034C258.524 101.009 258.497 100.93 258.469 100.859C258.441 100.789 258.419 100.731 258.422 100.729C258.425 100.729 258.474 100.718 258.532 100.706C258.595 100.693 258.661 100.67 258.697 100.647C258.75 100.615 258.758 100.605 258.772 100.554C258.781 100.523 258.785 100.48 258.781 100.461C258.762 100.376 258.575 100.127 258.42 99.9826C258.355 99.9218 258.342 99.9002 258.378 99.9103C258.404 99.9175 258.717 99.8997 258.781 99.8873C258.851 99.874 258.935 99.8296 258.979 99.7812C259.07 99.6832 259.08 99.6021 259.013 99.4948C258.933 99.367 258.768 99.2323 258.45 99.0315C258.402 99.0024 258.365 98.9761 258.367 98.9731C258.368 98.9697 258.411 98.955 258.462 98.9392C258.583 98.9015 258.785 98.7966 258.832 98.7467C258.915 98.6561 258.933 98.5627 258.88 98.4862C258.837 98.4243 258.584 98.2831 258.449 98.2439C258.38 98.2247 258.381 98.214 258.445 98.1446C258.556 98.029 258.64 97.8415 258.615 97.7654C258.592 97.6896 258.571 97.6777 258.379 97.6253C257.722 97.4436 256.146 97.2933 255.172 97.3201C255.031 97.3244 254.91 97.3258 254.906 97.3245C254.895 97.3213 254.933 97.2337 254.95 97.224C254.956 97.2208 255.015 97.2252 255.083 97.2345C255.234 97.2563 255.393 97.2631 255.477 97.2527C255.557 97.2413 255.646 97.1837 255.69 97.1159C255.732 97.0487 255.766 96.9239 255.774 96.8144C255.779 96.7213 255.788 96.7103 255.837 96.7241C255.85 96.7279 255.908 96.7354 255.963 96.7413C256.133 96.7585 256.197 96.7339 256.299 96.6169C256.353 96.5533 256.359 96.5404 256.392 96.4282L256.425 96.309L256.481 96.3174C256.676 96.3441 256.888 96.2495 257.021 96.0744C257.057 96.0264 257.07 95.9959 257.106 95.8664C257.13 95.7835 257.15 95.6946 257.152 95.6709L257.154 95.6264L257.31 95.5392C257.421 95.4769 257.48 95.4363 257.515 95.3965C257.603 95.2961 257.66 95.1254 257.664 94.9544C257.665 94.917 257.667 94.8836 257.668 94.8802C257.669 94.8769 257.698 94.8666 257.731 94.8579C257.822 94.8346 257.925 94.7775 257.974 94.7256C258.033 94.6598 258.077 94.5567 258.13 94.3544L258.176 94.1747L258.279 94.1475C258.419 94.1103 258.509 94.0593 258.579 93.9782C258.633 93.9158 258.639 93.9051 258.673 93.7825C258.704 93.6734 258.709 93.6324 258.709 93.527C258.709 93.4276 258.712 93.3993 258.726 93.3994C258.766 93.3975 259.02 93.3059 259.063 93.2768C259.222 93.1745 259.262 93.0013 259.206 92.6679L259.19 92.57L259.319 92.5333C259.482 92.487 259.551 92.4444 259.613 92.3549C259.686 92.2455 259.712 92.134 259.704 91.968C259.7 91.8942 259.69 91.7857 259.68 91.7259C259.67 91.6661 259.662 91.6143 259.664 91.6087C259.665 91.6042 259.703 91.5917 259.748 91.5824C259.841 91.5623 259.986 91.4854 260.036 91.4289C260.087 91.3729 260.14 91.172 260.132 91.0715C260.127 91.0022 260.128 91.0011 260.151 91.0004C260.199 90.998 260.461 90.9064 260.544 90.8629C260.665 90.7985 260.777 90.6662 260.81 90.547C260.827 90.4863 260.83 90.282 260.814 90.1878C260.797 90.091 260.798 90.0876 260.831 90.0871C260.879 90.0847 261.091 90.0093 261.152 89.9709C261.249 89.9106 261.303 89.8396 261.343 89.7209C261.372 89.6344 261.374 89.6072 261.37 89.5224C261.368 89.4685 261.357 89.3877 261.347 89.3438L261.329 89.2633L261.372 89.2464C261.586 89.168 261.631 89.1465 261.681 89.1024C261.759 89.0346 261.807 88.952 261.83 88.8458C261.854 88.736 261.843 88.6785 261.779 88.5743L261.73 88.4965L261.867 88.4424C262.153 88.3309 262.452 88.1443 262.521 88.0337C262.571 87.9544 262.59 87.888 262.582 87.8289C262.574 87.7757 262.566 87.7649 262.438 87.6444C262.364 87.5736 262.303 87.513 262.304 87.5096C262.305 87.5063 262.347 87.4998 262.397 87.4944C262.57 87.4763 262.821 87.4264 262.959 87.38C263.036 87.3556 263.213 87.2986 263.352 87.2536C263.736 87.1307 263.865 87.0626 263.983 86.9223C264.07 86.8204 264.094 86.7519 264.056 86.7158C264.047 86.7073 263.97 86.6663 263.886 86.6257C263.627 86.5011 263.47 86.4669 263.082 86.4526C262.703 86.4389 262.03 86.4809 261.359 86.5583C261.281 86.568 261.215 86.5727 261.212 86.5695C261.211 86.5656 261.301 86.5434 261.413 86.519C261.866 86.4238 261.943 86.402 262.425 86.2312C262.537 86.1933 262.712 86.1319 262.815 86.0965C262.997 86.0337 263.182 85.9581 263.618 85.766C263.91 85.6368 263.997 85.5919 264.224 85.448C264.431 85.3181 264.462 85.2903 264.452 85.2476C264.444 85.2077 264.411 85.1912 264.327 85.1845C264.284 85.1811 264.136 85.1639 263.998 85.1459C263.861 85.1281 263.701 85.1137 263.644 85.1147C263.326 85.1176 262.809 85.2204 262.075 85.4259C261.731 85.5225 261.148 85.6478 260.797 85.7011C260.711 85.7135 260.715 85.7122 260.929 85.6338C261.187 85.5387 261.833 85.3412 262.649 85.1076C263.516 84.8591 263.655 84.8024 264.244 84.4553C264.575 84.2606 264.635 84.2155 264.626 84.1634C264.616 84.0973 264.57 84.0918 264.118 84.1061C263.98 84.1098 263.757 84.1092 263.621 84.1051C263.263 84.0923 263.087 84.106 262.772 84.1705C262.392 84.2485 262.146 84.3179 261.877 84.422C261.817 84.4452 261.759 84.4677 261.748 84.4719C261.737 84.4761 261.796 84.437 261.879 84.3849C262.166 84.2034 262.644 83.8473 262.94 83.594C263.179 83.3893 263.275 83.2974 263.408 83.1503C263.634 82.9019 263.686 82.8243 263.677 82.7526C263.673 82.72 263.667 82.7121 263.634 82.703C263.567 82.6841 262.953 82.7912 262.662 82.8735C262.261 82.9866 261.94 83.098 261.753 83.1899C261.439 83.3461 261.052 83.5965 260.629 83.9174C260.443 84.0591 260.166 84.2605 260.13 84.2808C260.111 84.2913 260.11 84.291 260.123 84.2789C260.197 84.205 260.767 83.7302 260.962 83.5798C261.252 83.3556 261.454 83.1875 261.664 82.9942C261.748 82.9169 261.827 82.8469 261.841 82.8377C261.88 82.8132 262.079 82.6312 262.198 82.5118C262.254 82.4548 262.358 82.3395 262.428 82.2559C262.619 82.0243 262.723 81.8643 262.836 81.6243C262.931 81.4229 262.941 81.3578 262.883 81.3159C262.866 81.3052 262.851 81.2949 262.851 81.2949C262.85 81.2946 262.828 81.2982 262.802 81.3032Z" fill="white"/>
</g>
<path d="M24.8007 169.124V176.929H16.9979V179.681H24.8007V187.486H27.5546V179.681H35.3593V176.929H27.5546V169.124H24.8007Z" fill="#9C6BE6"/>
<path d="M23.1025 125.043C20.6196 123.061 17.2842 122.512 14.2963 123.593C14.0106 118.24 9.43999 114.132 4.08701 114.418" stroke="#A166FF" stroke-width="2.75463" stroke-linejoin="round"/>
<path d="M31.7573 131.403C31.0518 130.649 30.1372 130.122 29.1306 129.891" stroke="#A166FF" stroke-width="2.75463" stroke-linejoin="round"/>
<path d="M4.80035 144.8H33.1583C35.8109 144.774 37.9404 142.603 37.9147 139.95C37.8889 137.333 35.7745 135.219 33.1583 135.193H33.1452C33.149 135.111 33.1583 135.03 33.1583 134.948C33.1593 134.013 32.9068 133.094 32.4273 132.291" stroke="#A166FF" stroke-width="2.75463" stroke-linejoin="round"/>
<path d="M33.8746 131.403L46.6839 131.379C48.9168 131.141 50.5339 129.139 50.2959 126.906C50.0578 124.673 48.0551 123.057 45.8221 123.294C45.568 123.322 45.3166 123.373 45.0717 123.447C44.2412 120.834 41.4502 119.39 38.8374 120.22C38.2514 120.406 37.705 120.699 37.2265 121.086C36.612 118.104 33.697 116.185 30.7163 116.8C27.735 117.415 25.8164 120.329 26.4309 123.31C26.4429 123.369 26.4559 123.428 26.47 123.485C25.9576 123.659 25.485 123.932 25.0797 124.29" stroke="white" stroke-width="2.75463" stroke-linejoin="round"/>
<path d="M35.3714 124.953C35.3716 122.21 37.5956 119.986 40.3383 119.986" stroke="white" stroke-width="2.75463" stroke-linejoin="round"/>
<path d="M327.209 103.487C326.375 105.054 325.87 106.774 325.726 108.544C320.718 104.083 313.043 104.527 308.582 109.534C306.602 111.758 305.507 114.633 305.507 117.613C305.507 117.814 305.513 118.016 305.522 118.218C302.256 116.707 298.384 118.13 296.873 121.396C296.531 122.138 296.33 122.937 296.282 123.753C292.521 124.311 289.924 127.812 290.482 131.572C290.983 134.951 293.885 137.452 297.301 137.448L332.528 137.616" stroke="#A166FF" stroke-width="3.9165" stroke-linejoin="round"/>
<path d="M330.286 99.6698C329.425 100.403 328.662 101.242 328.016 102.17" stroke="#A166FF" stroke-width="3.9165" stroke-linejoin="round"/>
</svg>
